<?xml version="1.0" standalone="no"?>
<!DOCTYPE svg PUBLIC "-//W3C//DTD SVG 20010904//EN"
 "http://www.w3.org/TR/2001/REC-SVG-20010904/DTD/svg10.dtd">
<svg version="1.0" xmlns="http://www.w3.org/2000/svg"
 width="961.000000pt" height="961.000000pt" viewBox="0 0 961.000000 961.000000"
 preserveAspectRatio="xMidYMid meet">
<metadata>
Created by potrace 1.11, written by Peter Selinger 2001-2013
</metadata>
<g transform="translate(0.000000,961.000000) scale(0.100000,-0.100000)"
fill="#000000" stroke="none">
<path d="M7114 9331 c-73 -33 -122 -114 -140 -228 l-7 -43 -44 0 c-41 0 -45
-3 -59 -35 -7 -19 -14 -48 -14 -65 0 -31 9 -35 67 -30 16 1 20 -3 18 -17 -3
-10 -25 -124 -51 -253 -25 -129 -53 -251 -61 -271 -16 -41 -46 -59 -89 -54
-39 4 -52 -9 -60 -61 -10 -68 3 -77 103 -72 72 4 89 8 125 34 67 48 84 95 147
407 l57 282 35 1 c19 1 46 2 60 3 28 1 36 12 49 70 13 52 5 61 -56 61 -61 0
-65 7 -42 82 17 57 47 77 108 72 47 -5 51 -3 60 21 6 15 10 42 10 61 0 28 -5
36 -26 44 -42 16 -145 11 -190 -9z"/>
<path d="M8690 9330 c-20 -13 -191 -865 -176 -880 11 -11 105 -14 122 -2 6 4
14 16 17 26 7 18 8 18 30 -1 45 -42 86 -55 156 -51 75 5 123 25 171 71 87 84
133 207 134 357 1 84 -2 100 -24 140 -36 64 -80 90 -149 90 -62 0 -118 -22
-168 -64 l-32 -27 9 28 c18 55 61 295 56 309 -6 16 -121 20 -146 4z m259 -411
c22 -20 23 -28 19 -109 -9 -188 -119 -298 -223 -223 -14 10 -28 28 -31 41 -7
25 19 139 42 183 35 68 107 127 155 129 8 0 26 -10 38 -21z"/>
<path d="M4766 9261 c-11 -12 -36 -108 -71 -278 -61 -297 -89 -409 -113 -445
-62 -93 -154 -158 -225 -158 -56 0 -180 57 -171 79 4 9 13 33 21 54 7 21 24
60 37 86 14 26 41 90 61 142 21 52 58 136 83 187 51 105 64 111 122 62 32 -27
100 -44 86 -21 -3 5 2 8 11 7 12 -1 20 10 27 35 7 31 5 42 -12 66 -47 67 -130
102 -208 88 -41 -7 -100 -57 -89 -75 5 -8 4 -11 -3 -6 -11 7 -68 -82 -89 -139
-6 -16 -15 -39 -19 -50 -4 -11 -8 -22 -9 -25 -4 -12 -26 -64 -45 -104 -11 -25
-20 -49 -20 -53 -1 -4 -18 -44 -39 -87 l-38 -80 -109 140 c-60 76 -134 165
-165 197 -50 51 -60 57 -97 57 -46 0 -92 -32 -118 -82 -8 -16 -33 -104 -54
-196 -35 -147 -53 -204 -117 -377 -8 -22 -18 -44 -23 -49 -5 -5 -38 15 -79 48
-66 54 -98 91 -179 205 -17 25 -40 52 -49 59 -26 19 -80 15 -103 -8 -19 -19
-20 -29 -14 -163 7 -157 -6 -266 -49 -414 -32 -111 -48 -133 -95 -133 -98 0
-266 70 -311 130 -62 81 -97 110 -136 110 -27 0 -44 -8 -67 -30 -27 -28 -30
-36 -25 -75 3 -29 15 -58 33 -81 54 -67 63 -87 80 -183 15 -81 16 -110 6 -185
-6 -49 -15 -93 -19 -97 -14 -14 -112 -29 -193 -29 -98 0 -203 28 -259 68 -79
57 -161 35 -161 -43 0 -40 20 -65 78 -94 80 -41 153 -165 186 -314 6 -27 3
-29 -76 -66 -138 -63 -284 -91 -481 -91 -162 0 -196 -15 -197 -90 0 -49 18
-71 107 -131 76 -51 127 -94 210 -178 47 -48 52 -59 26 -67 -10 -3 -31 -12
-48 -21 -49 -25 -199 -71 -355 -109 -196 -48 -230 -71 -230 -150 0 -31 7 -44
43 -78 23 -23 63 -54 87 -71 46 -30 228 -162 243 -175 9 -8 -48 -45 -102 -64
-20 -8 -87 -35 -150 -61 -270 -110 -331 -161 -331 -273 0 -36 7 -60 29 -94 33
-51 143 -147 206 -178 22 -11 49 -27 60 -36 20 -15 20 -15 -5 -34 -14 -11 -30
-20 -36 -20 -14 0 -111 -58 -162 -96 -44 -33 -54 -45 -88 -101 -33 -55 -35
-134 -4 -197 24 -50 160 -184 232 -228 52 -32 58 -43 28 -53 -25 -8 -135 -128
-166 -181 -34 -57 -42 -154 -20 -222 36 -107 160 -257 269 -324 9 -5 7 -16 -8
-40 -14 -24 -20 -57 -23 -118 -4 -72 0 -97 20 -155 25 -72 102 -189 155 -235
76 -67 140 -118 161 -129 19 -10 22 -19 22 -79 0 -232 190 -502 453 -647 59
-33 71 -44 96 -94 65 -130 150 -233 280 -341 55 -45 221 -135 290 -157 49 -16
59 -25 122 -108 184 -246 401 -375 629 -375 l81 0 47 -51 c57 -62 128 -113
144 -103 6 4 8 3 5 -3 -10 -16 79 -69 147 -88 81 -24 212 -17 279 15 26 12 47
26 47 30 0 24 45 -5 113 -73 46 -47 82 -75 89 -71 7 4 8 3 4 -4 -4 -7 3 -17
18 -24 14 -6 26 -15 26 -20 0 -10 57 -36 87 -41 10 -1 24 -6 31 -11 7 -4 20
-2 29 6 12 9 15 9 9 1 -5 -10 7 -13 48 -13 38 0 56 4 56 13 0 9 2 9 8 0 6 -10
21 -7 60 13 29 14 52 31 52 37 0 5 3 8 6 4 7 -7 94 73 94 86 0 4 -9 3 -19 -3
-11 -5 -23 -10 -28 -10 -4 1 3 7 17 15 16 9 25 22 25 39 1 29 -3 31 -25 15
-11 -8 -12 -12 -2 -16 6 -2 12 -9 12 -14 0 -5 -9 -4 -20 3 -26 17 -25 20 11
41 40 22 31 34 -9 13 -43 -22 -49 -36 -24 -57 18 -14 19 -18 7 -23 -8 -3 -12
-12 -9 -21 3 -8 10 -12 15 -9 5 3 9 0 9 -5 0 -16 -20 -13 -26 4 -4 8 -10 13
-15 10 -9 -6 -33 34 -25 43 3 3 6 0 6 -7 0 -7 4 -9 10 -6 6 4 7 -1 3 -12 -6
-16 -5 -17 11 -3 17 13 17 15 -4 32 l-22 18 23 18 c15 13 19 21 11 26 -7 4
-12 2 -12 -5 0 -7 -3 -10 -6 -7 -3 4 -1 15 5 27 7 12 7 22 2 26 -5 3 -12 -4
-16 -15 -3 -11 -11 -20 -16 -20 -12 0 19 50 45 72 12 10 16 18 9 18 -13 0 -53
-39 -53 -52 0 -4 -16 -22 -35 -39 -32 -29 -49 -59 -25 -44 6 4 7 -1 3 -11 -5
-15 -7 -15 -15 0 -8 14 -11 14 -33 0 -27 -17 -113 -25 -118 -11 -1 5 -14 10
-29 10 -14 1 -24 5 -21 10 2 4 -3 10 -12 14 -10 3 -27 15 -39 27 -46 44 -75
64 -82 58 -4 -4 -4 -1 0 6 5 9 -3 24 -22 43 -29 29 -40 70 -17 66 5 -1 9 6 9
15 -1 10 3 16 8 15 13 -2 69 89 61 97 -4 3 -2 6 3 6 10 0 54 70 54 84 0 4 -5
4 -12 0 -7 -4 -8 -3 -4 5 4 6 11 9 15 7 10 -6 46 55 44 74 -2 8 0 10 3 4 3 -7
14 -10 24 -7 11 3 17 10 13 17 -3 6 3 2 15 -8 25 -21 31 -36 7 -16 -24 20 -17
6 13 -27 15 -17 40 -49 55 -72 16 -23 33 -39 38 -36 5 3 6 -1 3 -9 -7 -17 11
-22 21 -6 3 6 11 10 17 10 5 0 0 -8 -12 -18 l-21 -17 30 -43 c17 -23 31 -46
31 -51 0 -5 7 -11 15 -15 9 -3 15 0 15 9 0 8 5 15 11 15 7 0 5 -10 -5 -25 -9
-14 -12 -25 -6 -25 5 0 10 -7 10 -15 0 -8 5 -15 10 -15 6 0 10 -7 10 -16 0 -8
5 -12 10 -9 6 3 14 4 20 0 13 -8 1 -35 -16 -35 -8 0 -14 -5 -14 -11 0 -5 4 -8
9 -5 4 3 8 -6 7 -21 0 -14 4 -28 10 -30 7 -2 10 6 9 19 -1 13 4 37 11 53 8 19
13 23 14 13 0 -10 5 -18 10 -18 6 0 10 -5 10 -11 0 -8 -6 -7 -17 2 -15 12 -16
12 -11 -2 4 -9 1 -22 -5 -28 -6 -6 -7 -14 -2 -18 4 -5 10 -2 12 5 4 10 8 10
20 0 12 -10 14 -9 11 8 -2 14 2 18 19 17 17 -2 21 1 17 15 -5 14 -4 14 4 2 15
-20 4 -32 -20 -24 -17 5 -18 3 -9 -14 14 -27 14 -27 -6 -48 -13 -13 -15 -18
-5 -22 10 -3 10 -7 1 -18 -8 -10 -8 -14 0 -14 6 0 12 5 12 10 1 6 2 13 3 18 6
29 60 69 71 52 3 -5 1 -18 -5 -27 -9 -15 -10 -14 -4 6 l6 24 -31 -22 c-30 -22
-31 -23 -13 -46 9 -14 22 -23 29 -20 7 2 15 -1 19 -7 4 -7 3 -8 -4 -4 -7 4
-12 3 -12 -2 0 -5 9 -12 20 -15 11 -3 20 -13 20 -22 0 -23 27 -48 45 -41 8 3
15 1 15 -3 0 -5 -6 -12 -12 -14 -8 -4 -7 -6 3 -6 9 -1 22 -8 29 -16 7 -9 15
-14 17 -12 6 7 -8 37 -16 33 -3 -2 -7 7 -8 21 -1 19 1 22 8 12 7 -12 9 -12 9
0 0 8 -8 20 -17 27 -16 13 -17 15 -2 26 9 7 18 20 21 28 3 8 5 -6 5 -32 -1
-56 7 -68 30 -45 9 9 13 20 9 24 -4 4 -11 1 -16 -7 -6 -8 -10 -10 -10 -4 0 5
5 15 12 22 9 9 9 12 0 12 -7 0 -12 4 -12 8 0 5 7 9 15 9 8 0 13 -2 10 -5 -2
-3 0 -13 6 -24 8 -15 7 -24 -7 -39 -10 -11 -24 -17 -32 -14 -10 4 -12 0 -8
-11 3 -8 6 -18 6 -20 0 -2 5 -4 12 -4 6 0 9 2 6 5 -3 3 8 19 24 35 25 26 27
32 17 51 -18 35 -92 102 -114 104 -27 3 -61 -20 -45 -30 7 -4 16 -1 21 6 4 7
11 10 16 6 4 -5 1 -12 -7 -17 -19 -12 -22 -12 -40 0 -13 9 -12 12 5 26 11 8
19 19 18 23 -1 4 5 8 13 8 7 0 14 -4 14 -9 0 -4 5 -8 10 -8 17 0 11 18 -9 25
-10 3 -21 15 -24 25 -4 14 -10 18 -22 13 -17 -6 -17 -5 0 20 9 14 16 28 16 31
-3 19 0 26 9 21 5 -3 7 0 5 8 -3 7 3 21 14 31 11 10 17 25 14 34 -5 11 -3 13
8 7 12 -8 12 -6 0 8 -7 9 -18 14 -25 10 -7 -4 -7 -1 1 7 9 10 15 10 26 1 11
-9 17 -8 27 4 12 14 7 19 -13 16 -5 -1 -7 4 -4 11 2 7 -2 21 -11 31 -9 10 -11
17 -4 17 7 0 17 -9 24 -20 7 -11 17 -20 22 -20 5 0 6 3 3 7 -4 3 1 12 11 20
16 12 16 13 -1 7 -13 -5 -16 -2 -11 9 3 9 11 15 17 13 7 -1 9 -1 5 1 -5 3 -8
10 -8 16 0 5 3 7 6 4 8 -8 46 12 40 21 -5 9 45 56 64 60 8 2 19 7 24 12 5 5
20 1 36 -10 14 -10 33 -20 40 -22 8 -2 28 -17 44 -35 16 -18 33 -30 37 -27 5
3 6 -3 2 -12 -4 -10 -2 -15 3 -11 5 3 16 -8 23 -24 7 -16 18 -29 25 -29 16 0
15 -43 -2 -62 -6 -8 -9 -18 -5 -22 4 -3 -2 -13 -13 -21 -10 -8 -14 -15 -9 -15
6 0 3 -5 -5 -10 -11 -7 -11 -10 -2 -10 7 0 10 -5 7 -10 -4 -6 -12 -7 -18 -4
-7 4 -9 3 -4 -1 4 -5 0 -17 -10 -27 -9 -10 -12 -18 -7 -18 5 0 4 -4 -1 -8 -11
-8 -49 -62 -51 -74 -1 -5 -2 -15 -3 -23 0 -8 -5 -14 -9 -13 -5 2 -22 -10 -40
-27 -49 -47 -66 -60 -72 -57 -3 2 -12 9 -20 15 -13 10 -13 10 -2 -4 11 -14 10
-17 -4 -15 -9 0 -19 -4 -21 -10 -5 -16 37 -10 48 7 7 11 9 11 9 1 0 -7 5 -10
10 -7 6 4 17 1 25 -5 11 -9 14 -7 12 9 -1 13 -6 20 -14 17 -21 -8 -15 2 8 15
17 9 20 8 14 -2 -6 -8 -4 -10 4 -5 7 5 10 15 7 23 -3 8 -2 12 3 8 5 -3 12 1
15 7 3 7 3 3 0 -9 -4 -18 -2 -22 10 -17 9 3 13 10 10 15 -3 5 1 6 9 3 11 -4
14 4 13 33 l-1 38 59 0 c48 0 60 -3 62 -17 2 -16 0 -16 -22 -1 -14 9 -27 13
-31 9 -3 -3 -1 -6 5 -6 6 0 9 -9 7 -19 -3 -15 1 -19 13 -15 16 5 16 5 0 -6
-10 -6 -15 -17 -11 -26 3 -8 2 -14 -3 -13 -23 4 -36 -2 -31 -16 4 -8 2 -17 -4
-20 -5 -4 -9 -3 -8 2 3 20 -2 34 -11 28 -7 -4 -7 -12 0 -25 12 -23 13 -40 1
-21 -6 9 -11 10 -15 2 -4 -6 -2 -11 4 -11 6 0 8 -5 4 -11 -4 -8 -9 -7 -14 2
-11 16 -42 21 -37 6 2 -7 9 -12 14 -12 6 0 15 -4 20 -9 5 -5 3 -6 -4 -2 -8 5
-13 1 -13 -9 0 -9 -6 -15 -12 -12 -7 2 -12 12 -12 21 2 17 -11 22 -21 6 -3 -5
-11 -7 -19 -4 -7 3 -13 -2 -13 -11 0 -10 6 -13 18 -10 9 3 20 1 24 -4 4 -7 -1
-8 -12 -5 -14 5 -15 4 -4 -4 11 -8 9 -10 -10 -11 -13 0 -35 -2 -49 -4 -14 -2
-31 0 -37 5 -7 6 -20 8 -28 4 -9 -3 -14 -2 -11 3 7 11 -22 23 -35 15 -5 -3 -9
-10 -9 -15 0 -6 5 -7 11 -3 6 3 15 1 19 -6 9 -15 130 -23 130 -8 0 5 4 7 9 4
17 -11 87 37 127 86 45 55 85 122 80 134 -3 8 0 14 7 14 16 0 51 74 37 78 -6
2 -10 8 -10 13 0 6 4 8 9 4 6 -3 19 4 30 16 l19 21 12 -21 c6 -12 16 -18 22
-15 6 4 8 3 5 -3 -13 -21 146 -219 166 -206 5 3 7 1 4 -4 -12 -19 46 -47 106
-50 115 -7 164 48 261 295 20 51 33 98 30 104 -4 6 -3 8 3 5 5 -3 20 18 32 48
13 30 27 55 33 55 5 0 7 -4 4 -8 -3 -5 8 -9 24 -9 16 0 27 4 24 8 -2 4 5 13
17 19 12 7 19 8 15 2 -3 -6 0 -13 6 -16 7 -3 2 -3 -11 0 -15 4 -21 2 -17 -4 4
-6 -3 -16 -15 -22 -15 -8 -19 -9 -15 -1 4 6 3 11 -3 11 -21 0 -19 -17 5 -43
13 -14 24 -30 24 -34 0 -4 18 -27 40 -50 21 -24 36 -43 33 -43 -3 0 4 -8 15
-19 12 -10 22 -24 22 -30 0 -7 5 -9 10 -6 6 3 10 2 10 -4 0 -6 9 -15 20 -21
26 -14 80 -20 80 -8 0 5 4 6 10 3 12 -8 63 42 55 54 -3 5 -1 11 3 13 5 1 16
30 25 62 13 47 14 63 4 75 -9 12 -9 13 1 7 14 -8 21 6 25 49 1 17 5 32 9 35 3
3 8 19 11 35 3 17 10 42 16 58 10 26 7 32 -14 27 -5 -1 -7 2 -3 6 4 4 2 14 -4
23 -10 12 -8 12 8 -2 28 -23 33 -22 30 8 -2 14 1 22 7 18 5 -3 8 0 5 8 -3 8 2
20 9 28 8 7 12 20 9 27 -3 8 -2 14 2 14 10 0 35 61 33 80 -1 9 1 11 6 5 4 -6
28 -23 53 -38 58 -34 104 -79 165 -158 86 -112 94 -119 141 -119 31 0 48 6 65
24 23 24 24 30 25 213 0 163 3 198 23 267 37 132 57 155 111 126 10 -6 30 -11
44 -12 15 -1 26 -6 26 -10 0 -6 27 -18 43 -18 8 0 73 -66 123 -126 24 -29 38
-37 63 -37 78 0 99 91 38 160 -44 49 -67 142 -66 260 1 118 7 133 51 149 137
47 289 39 390 -22 72 -43 123 -46 162 -8 51 52 27 132 -52 173 -21 11 -49 32
-64 48 -34 36 -87 148 -90 192 -3 33 -1 35 52 57 116 47 238 61 449 52 51 -3
81 25 81 76 0 41 -2 44 -95 107 -77 52 -215 181 -215 200 0 12 124 71 206 98
33 11 114 34 180 51 191 50 234 80 234 166 0 33 -7 45 -53 88 -28 28 -99 82
-156 120 -70 47 -99 71 -90 76 8 4 81 36 162 70 186 78 237 111 256 165 32 92
-24 174 -189 281 -49 32 -87 61 -85 64 2 4 37 24 77 45 187 97 258 179 258
296 0 77 -38 136 -143 228 l-86 74 44 52 c58 68 77 114 76 191 0 73 -16 116
-68 188 -43 58 -68 81 -139 131 l-50 36 29 57 c27 54 28 63 25 157 -3 80 -9
109 -27 145 -40 78 -111 163 -202 240 -68 58 -88 81 -89 101 0 39 -28 125 -57
177 -70 125 -163 219 -318 322 -48 31 -59 47 -104 135 -76 152 -170 253 -333
358 -81 53 -195 107 -224 107 -7 0 -30 19 -51 42 -120 134 -186 186 -309 245
-66 31 -87 36 -172 41 l-97 5 -53 58 c-101 111 -210 183 -317 210 -70 18 -180
7 -244 -24 l-54 -26 -28 30 c-15 16 -31 29 -37 29 -5 0 -13 7 -16 16 -3 8 -11
12 -17 8 -8 -4 -9 -3 -5 4 6 11 -45 49 -89 66 -35 14 -152 18 -192 7 -21 -6
-49 -20 -63 -32 -14 -11 -19 -17 -11 -13 9 5 12 3 7 -5 -4 -6 -12 -9 -17 -5
-14 8 -60 -36 -52 -49 3 -6 1 -7 -4 -4 -12 7 -49 -41 -45 -58 1 -5 -10 6 -26
25 -66 84 -140 154 -187 176 -57 27 -138 32 -188 10 -48 -20 -139 -122 -182
-204 -33 -63 -40 -71 -48 -55 -21 38 -111 133 -144 153 -41 24 -114 26 -152 4
-24 -14 -101 -119 -101 -138 0 -5 -7 -22 -15 -39 -8 -18 -25 -61 -39 -97 -13
-36 -34 -86 -45 -112 l-22 -48 -27 33 c-16 17 -49 61 -74 98 -25 36 -65 82
-87 102 -34 31 -48 37 -85 37 -46 0 -87 -24 -107 -63 -7 -11 -29 -91 -50 -176
-21 -86 -49 -184 -62 -218 l-23 -63 -24 17 c-35 25 -70 62 -135 143 -50 62
-60 70 -90 70 -22 0 -43 -8 -56 -21 -19 -19 -20 -29 -16 -122 6 -142 -12 -266
-51 -359 -13 -32 -21 -38 -46 -38 -64 0 -206 61 -206 89 0 4 -16 24 -35 44
-31 31 -43 37 -79 37 -102 0 -129 -103 -51 -190 35 -39 49 -96 50 -198 0 -106
-1 -108 -84 -118 -78 -10 -174 9 -230 45 -79 51 -151 32 -151 -40 0 -43 14
-65 63 -93 59 -35 115 -116 131 -191 6 -30 4 -32 -51 -58 -93 -44 -159 -58
-311 -64 -134 -5 -143 -7 -167 -31 -27 -27 -33 -77 -15 -113 6 -10 43 -41 83
-68 40 -26 94 -70 121 -97 49 -48 49 -48 25 -58 -13 -5 -37 -15 -54 -22 -44
-18 -150 -49 -235 -69 -80 -19 -134 -45 -144 -71 -3 -9 -6 -32 -6 -52 0 -29 8
-43 43 -77 23 -22 65 -54 92 -70 28 -15 69 -43 92 -61 l43 -32 -68 -27 c-127
-53 -277 -126 -300 -148 -36 -33 -52 -71 -52 -120 0 -70 56 -139 174 -214 l39
-25 -39 -24 c-114 -67 -162 -118 -174 -186 -16 -85 25 -159 134 -243 36 -27
65 -53 66 -57 0 -4 -13 -16 -29 -27 -15 -11 -45 -44 -65 -74 -42 -62 -56 -134
-37 -204 17 -61 86 -158 147 -206 54 -41 55 -42 47 -82 -25 -136 13 -239 129
-351 40 -38 85 -79 99 -90 22 -16 27 -30 31 -84 14 -164 137 -330 341 -461 48
-31 77 -57 88 -80 22 -44 134 -174 189 -218 43 -34 224 -131 245 -131 6 0 22
-15 35 -32 138 -190 300 -293 480 -305 56 -4 88 -11 93 -20 7 -12 90 -76 126
-98 10 -6 12 -4 7 6 -4 8 -2 7 6 -2 21 -26 79 -51 104 -46 13 2 21 0 18 -4 -2
-5 11 -7 31 -5 19 1 35 -2 35 -6 0 -5 5 -6 12 -2 7 4 24 8 38 9 34 2 71 15 66
23 -2 4 11 8 30 9 19 2 34 -1 34 -6 0 -18 94 -102 108 -96 7 2 10 1 7 -4 -9
-16 16 -25 27 -10 8 11 9 10 4 -4 -4 -13 2 -20 20 -27 14 -6 29 -8 34 -5 5 3
10 1 12 -5 5 -15 87 -21 130 -8 33 10 38 15 34 33 -3 12 1 30 10 41 14 18 14
17 3 -6 -9 -18 -9 -25 0 -28 6 -2 9 -8 6 -13 -4 -5 1 -6 10 -3 12 5 13 9 3 21
-7 9 -8 17 -2 21 5 4 10 15 10 24 2 24 -32 18 -47 -8 -6 -13 -18 -20 -25 -17
-10 4 -12 0 -8 -13 5 -15 4 -16 -4 -4 -13 17 -7 30 13 30 8 0 19 9 25 21 7 11
14 18 17 15 7 -6 32 24 33 38 0 5 -9 1 -20 -9 -11 -10 -20 -13 -20 -8 0 11 29
27 42 25 3 -1 9 6 12 14 5 12 2 15 -10 10 -8 -3 -24 -2 -34 4 -19 10 -33 -7
-26 -33 1 -6 1 -9 -1 -4 -3 4 -10 4 -15 1 -7 -4 -8 -2 -4 4 4 7 3 12 -2 12 -6
0 -12 -7 -16 -15 -6 -17 -26 -20 -26 -4 0 5 5 7 11 3 7 -4 10 -1 7 6 -5 17
-56 24 -73 10 -10 -8 -15 -8 -21 1 -4 8 -3 9 4 5 7 -4 12 -3 12 3 0 5 -9 12
-19 16 -11 3 -40 27 -65 53 -34 35 -44 52 -40 67 4 11 11 22 15 23 5 2 9 8 9
14 0 5 8 22 18 36 10 15 31 49 47 76 24 43 25 48 9 43 -18 -7 -19 -7 0 7 21
17 31 8 106 -106 46 -69 57 -79 57 -53 0 8 -5 11 -10 8 -6 -3 -7 -1 -3 5 3 6
-2 15 -11 21 -16 9 -16 10 -2 11 29 0 41 24 23 46 -15 18 -15 18 -11 -4 4 -15
-1 -26 -14 -32 -13 -7 -19 -7 -19 0 0 5 8 10 18 11 10 0 12 3 5 6 -9 3 -10 10
-3 24 15 27 -4 24 -23 -3 l-16 -23 6 23 c3 12 1 22 -6 22 -5 0 -8 -8 -5 -18 5
-14 4 -14 -4 -2 -15 20 -4 32 20 24 13 -4 18 -2 14 4 -7 12 39 62 57 62 7 0 6
-4 -3 -10 -19 -12 -22 -67 -3 -67 8 0 12 6 9 14 -3 8 -2 12 3 9 5 -3 12 1 15
10 9 22 -19 62 -41 60 -13 -1 -17 5 -16 20 1 12 -10 33 -27 49 -17 16 -30 25
-30 19 0 -5 -4 -3 -9 5 -14 21 -79 21 -116 0 -39 -23 -71 -57 -62 -66 4 -3 -2
-13 -14 -21 -16 -11 -18 -17 -8 -28 10 -12 9 -13 -5 -8 -12 5 -15 2 -9 -12 4
-11 3 -15 -4 -11 -14 9 -22 -11 -18 -46 2 -15 -1 -25 -5 -22 -5 3 -7 13 -4 23
5 14 3 14 -10 -2 -9 -11 -18 -17 -21 -15 -2 3 -36 69 -75 146 -78 158 -109
193 -169 193 -54 0 -83 -28 -132 -121 -40 -76 -110 -154 -133 -146 -18 6 -76
121 -101 201 -14 43 -27 105 -29 137 -4 69 -24 99 -68 99 -44 0 -65 -16 -78
-57 -25 -78 -58 -106 -146 -122 l-45 -9 -20 41 c-47 91 -62 184 -33 208 25 21
44 65 44 105 0 49 -53 104 -100 104 -40 0 -81 -24 -106 -62 -18 -29 -21 -30
-79 -24 -33 2 -97 17 -143 31 l-82 26 0 57 c0 82 31 134 86 145 52 10 78 38
78 82 0 56 -27 76 -98 74 -34 -1 -86 3 -116 10 -60 13 -193 59 -225 78 -19 11
-19 13 14 47 19 19 66 52 105 72 89 46 105 66 106 125 0 64 -26 87 -163 144
-176 73 -268 118 -264 128 2 6 16 17 33 26 173 94 214 134 214 208 0 65 -85
150 -217 217 -18 9 -33 20 -33 24 0 4 27 24 59 45 130 84 172 196 116 306 -14
29 -55 77 -100 119 -67 61 -74 71 -56 77 11 3 45 30 75 59 108 102 135 225 76
342 l-29 58 58 61 c32 33 73 90 92 125 30 60 33 72 32 155 0 50 -5 101 -10
115 -9 23 -4 32 60 100 73 78 137 192 137 245 0 19 12 36 38 58 112 95 181
186 228 299 13 33 28 51 48 60 42 17 159 116 201 169 31 40 44 48 99 63 110
30 225 112 306 219 l35 46 65 -1 c129 -2 215 35 313 133 l69 69 32 -18 c84
-51 214 -54 301 -9 65 34 112 80 174 167 l50 71 22 -31 c13 -17 29 -28 37 -25
7 2 11 1 8 -4 -13 -21 132 -120 154 -106 6 3 10 2 10 -3 0 -7 33 -8 50 -2 3 1
14 2 25 1 26 -2 118 56 110 69 -4 6 -1 9 6 8 6 -2 14 3 17 11 2 8 0 11 -6 7
-6 -3 -13 -2 -16 3 -4 5 2 8 11 6 26 -4 66 35 52 51 -7 8 -6 14 2 20 8 4 9 3
5 -4 -4 -7 -4 -12 1 -12 4 0 16 14 25 31 11 18 13 27 5 24 -6 -4 -4 0 7 9 17
14 21 13 45 -22 15 -20 38 -55 51 -77 32 -53 108 -133 142 -151 38 -20 123
-18 160 4 29 16 69 73 172 242 40 65 52 78 63 69 7 -7 59 -103 114 -215 90
-181 104 -204 135 -219 57 -27 106 1 146 84 38 79 87 149 123 177 20 15 37 25
39 23 2 -2 27 -49 54 -104 57 -115 92 -232 92 -309 0 -44 4 -58 26 -80 56 -55
164 -19 164 55 0 86 180 169 283 130 35 -13 85 -140 101 -258 6 -40 4 -44 -39
-86 -39 -39 -45 -51 -45 -85 0 -60 34 -97 90 -97 38 0 47 6 86 49 28 31 54 49
71 51 32 4 158 -18 223 -38 41 -13 46 -18 54 -55 11 -54 0 -123 -27 -163 -24
-36 -38 -45 -81 -54 -77 -16 -112 -107 -60 -159 25 -24 34 -26 108 -26 106 0
244 -35 378 -96 57 -26 105 -49 108 -51 2 -2 -4 -19 -15 -38 -23 -44 -99 -102
-193 -149 -59 -30 -76 -44 -88 -72 -17 -41 -11 -74 20 -103 12 -12 92 -51 177
-86 85 -36 178 -78 207 -92 l52 -27 -107 -63 c-154 -90 -203 -142 -203 -213 0
-82 74 -155 265 -265 60 -34 111 -67 113 -73 1 -5 -25 -26 -60 -45 -80 -45
-140 -96 -179 -154 -27 -38 -31 -54 -32 -108 0 -51 5 -72 28 -110 34 -58 90
-122 128 -145 l29 -18 -39 -28 c-63 -48 -140 -130 -165 -176 -19 -36 -23 -58
-23 -138 0 -88 2 -99 32 -155 18 -33 44 -74 57 -90 l25 -30 -65 -50 c-66 -52
-125 -131 -158 -214 -16 -41 -26 -194 -15 -228 2 -6 -25 -40 -61 -75 -119
-116 -185 -240 -197 -370 l-6 -73 -46 -30 c-58 -38 -170 -168 -206 -240 -16
-30 -32 -55 -36 -55 -4 0 -47 -26 -95 -58 -93 -62 -205 -171 -253 -249 -26
-41 -36 -48 -97 -68 -38 -12 -68 -27 -67 -33 2 -6 -3 -9 -10 -6 -17 6 -69 -21
-59 -31 4 -5 1 -5 -7 0 -9 5 -19 1 -28 -11 -8 -10 -15 -17 -16 -14 -1 2 -12
-2 -24 -11 -13 -9 -21 -18 -18 -21 3 -2 -6 -11 -20 -18 -14 -8 -24 -19 -21
-26 3 -9 -1 -11 -12 -7 -9 3 -14 3 -11 -1 4 -4 -8 -21 -25 -39 -28 -29 -34
-32 -66 -23 -79 20 -266 -20 -320 -69 -9 -8 -21 -15 -27 -15 -11 0 -110 -101
-167 -173 -29 -35 -41 -44 -47 -35 -7 10 -9 10 -9 1 0 -8 -8 -5 -20 7 -20 20
-56 38 -90 45 -8 2 -15 4 -15 5 0 8 -124 19 -142 12 -21 -7 -15 -21 7 -17 13
3 18 0 14 -7 -5 -7 -2 -8 7 -3 8 5 11 5 7 0 -4 -4 -2 -15 4 -24 10 -13 10 -14
-1 -4 -7 6 -20 9 -27 6 -8 -3 -18 6 -25 21 -13 27 -24 33 -34 16 -4 -6 -11 -7
-17 -4 -6 4 -8 2 -4 -4 3 -6 2 -13 -4 -17 -5 -3 -10 -2 -10 4 0 6 -16 1 -36
-11 -21 -12 -33 -26 -30 -34 3 -7 1 -16 -4 -19 -6 -4 -10 -1 -10 6 0 7 -11 2
-26 -12 -22 -21 -23 -25 -9 -35 10 -7 12 -15 6 -18 -5 -4 -12 -2 -16 4 -10 16
-28 11 -21 -6 4 -12 2 -15 -9 -10 -8 3 -14 2 -14 -2 3 -21 -2 -32 -13 -26 -6
4 -8 3 -5 -4 4 -5 16 -8 28 -5 16 5 18 8 7 15 -10 7 -8 8 6 6 11 -2 21 -13 23
-27 3 -20 1 -22 -11 -11 -16 12 -40 5 -31 -10 3 -4 -2 -10 -10 -13 -9 -4 -12
-1 -9 7 3 7 -3 17 -13 20 -14 6 -15 5 -6 -5 9 -9 9 -18 2 -31 -12 -23 -14 -21
-77 60 -19 23 -38 40 -43 36 -5 -3 -9 -1 -9 3 0 10 -87 76 -114 86 -10 4 -24
2 -32 -4 -9 -8 -18 -7 -31 1 -16 9 -15 10 6 4 15 -4 21 -2 17 4 -3 6 -29 10
-56 9 -40 0 -47 -3 -38 -14 8 -11 13 -11 19 -2 5 9 16 6 39 -11 30 -21 32 -21
51 -5 25 23 25 14 -1 -15 -32 -37 -22 -48 11 -12 17 19 33 32 36 29 2 -3 -9
-18 -26 -35 -17 -16 -28 -31 -25 -35 9 -9 -33 -28 -49 -22 -8 4 -14 0 -14 -9
0 -16 16 -16 52 -1 33 14 45 29 45 58 0 8 3 7 10 -3 6 -10 3 -22 -13 -39 l-22
-23 25 6 c24 6 24 6 -3 -9 -15 -9 -32 -26 -37 -38 -6 -16 -9 -18 -9 -5 -1 9 6
24 15 32 13 13 13 16 1 16 -8 0 -22 -10 -31 -23 -11 -16 -14 -17 -9 -3 6 17 4
17 -24 3 -23 -13 -33 -13 -43 -4 -10 9 -11 9 -5 -2 5 -10 4 -12 -4 -7 -6 4 -9
12 -6 17 7 10 -8 12 -18 2 -4 -3 1 -12 11 -20 9 -8 11 -11 3 -7 -10 5 -12 3
-7 -7 4 -8 1 -6 -7 4 -14 16 -15 16 -21 1 -4 -10 -2 -21 5 -24 8 -6 8 -9 0
-14 -6 -4 -11 -2 -11 4 0 6 -5 8 -11 4 -11 -7 10 36 38 74 9 13 12 22 7 21
-20 -3 -35 2 -29 11 3 5 12 7 19 4 8 -3 17 0 21 5 3 6 11 9 16 6 5 -3 6 1 3
10 -6 14 -8 14 -23 1 -14 -13 -20 -13 -31 -3 -10 10 -11 9 -5 -2 6 -10 4 -12
-4 -7 -8 6 -9 12 -2 20 6 7 7 16 3 20 -4 4 -1 6 7 4 7 -1 16 3 18 10 3 8 -2
10 -14 6 -14 -5 -15 -4 -3 4 8 6 18 8 22 6 4 -3 8 0 8 5 0 14 -6 14 -31 0 -11
-5 -16 -15 -13 -21 5 -8 1 -9 -10 -5 -10 4 -25 -2 -39 -16 -12 -12 -25 -22
-29 -22 -4 0 -25 -25 -47 -55 -36 -50 -38 -56 -25 -76 13 -19 13 -22 -2 -28
-12 -4 -15 -2 -11 9 8 18 -9 29 -20 13 -12 -21 -14 -48 -2 -48 5 0 7 5 3 11
-4 7 -1 10 6 7 16 -5 25 -58 10 -58 -5 0 -9 6 -8 13 2 6 -5 11 -14 11 -10 -1
-18 3 -18 10 -1 6 -9 -5 -19 -24 -11 -19 -17 -38 -14 -42 2 -5 -1 -8 -7 -8 -6
0 -9 -3 -7 -7 3 -5 -1 -14 -9 -21 -8 -7 -14 -9 -14 -4 0 6 -11 12 -24 14 -19
4 -26 0 -30 -16 -3 -16 -4 -15 -3 4 2 20 7 25 27 23 14 -1 19 0 12 3 -6 3 -10
10 -6 15 3 5 1 9 -4 9 -5 0 -12 10 -16 22 -4 18 -8 20 -18 10 -6 -6 -16 -12
-22 -12 -5 0 -1 6 9 14 18 13 18 14 -3 44 -12 16 -22 35 -22 41 0 7 -7 14 -15
17 -8 4 -13 9 -10 13 2 4 -5 14 -16 21 -10 8 -19 20 -19 27 0 6 -5 15 -12 19
-7 5 -8 3 -3 -6 5 -9 4 -11 -4 -6 -6 4 -9 12 -5 17 8 14 -26 50 -39 42 -5 -3
-7 -2 -4 4 3 5 -8 22 -25 38 -25 24 -41 30 -91 33 -42 3 -58 1 -53 -7 5 -7 1
-9 -9 -5 -11 5 -31 -10 -65 -46 -27 -29 -47 -57 -44 -62 3 -4 0 -8 -5 -8 -6 0
-11 -6 -11 -14 0 -8 -4 -16 -9 -18 -4 -1 -12 -14 -16 -27 -5 -18 -4 -22 5 -16
9 5 11 4 6 -4 -4 -6 -11 -9 -16 -6 -12 7 -33 -32 -25 -45 4 -6 1 -9 -7 -8 -7
2 -13 -4 -13 -12 0 -8 -8 -23 -18 -33 -16 -16 -16 -21 -5 -35 12 -16 11 -16
-6 -2 -11 8 -21 14 -23 12 -4 -3 -34 25 -33 30 3 11 -24 68 -31 68 -5 0 -8 3
-7 7 1 5 -34 82 -79 174 -96 197 -120 224 -195 217 -27 -3 -57 -13 -67 -22
-11 -10 -43 -63 -72 -119 -58 -110 -120 -182 -186 -216 -39 -19 -41 -19 -57
-3 -29 32 -113 215 -146 317 -23 71 -33 123 -35 178 -3 93 -18 117 -75 117
-45 0 -66 -20 -79 -80 -13 -60 -82 -124 -155 -145 -67 -20 -140 -23 -159 -7
-30 25 -89 199 -102 302 -5 43 -3 47 25 69 75 55 94 149 41 202 -25 24 -37 29
-80 29 -44 0 -56 -5 -91 -36 -21 -19 -42 -44 -45 -55 -12 -37 -174 -21 -329
32 -108 37 -113 41 -121 106 -16 138 49 255 152 274 29 5 55 17 66 30 24 29
22 84 -4 110 -19 19 -29 21 -83 15 -83 -8 -291 37 -384 83 -9 4 -47 22 -84 40
-38 17 -68 35 -68 39 0 21 49 79 95 114 28 21 86 56 130 79 44 22 90 51 103
65 30 34 30 101 0 139 -19 24 -145 91 -209 110 -13 4 -44 16 -69 27 -25 12
-58 26 -75 33 -29 12 -236 115 -244 121 -8 7 46 44 134 95 219 126 247 152
248 239 1 40 -5 58 -30 92 -29 41 -140 127 -213 165 -19 10 -58 32 -87 49
l-53 31 42 23 c194 109 278 206 278 321 -1 100 -72 209 -201 309 -43 34 -79
64 -79 68 0 4 35 30 76 57 139 92 214 200 222 322 5 82 -10 142 -58 223 l-30
51 37 32 c84 73 135 136 176 216 l42 85 0 130 c0 93 -4 138 -14 155 -13 23
-11 27 20 54 156 133 249 278 274 424 5 32 17 47 68 88 125 99 211 208 277
351 37 80 39 82 111 122 41 22 84 49 97 59 44 34 127 119 164 167 36 46 43 51
120 71 94 24 180 63 222 100 16 14 32 25 35 25 7 0 108 97 131 126 9 11 30 40
48 65 l33 46 47 -9 c113 -22 231 -1 337 58 48 27 160 131 202 186 l20 27 83
-42 c82 -42 82 -42 194 -42 103 0 115 2 169 30 61 30 158 120 207 191 44 62
67 159 110 449 31 210 27 205 65 80 71 -232 164 -487 182 -500 11 -9 45 -14
91 -15 78 0 106 15 117 62 24 102 152 765 148 770 -8 14 -141 9 -150 -4 -4 -7
-33 -141 -64 -298 -54 -271 -57 -283 -67 -245 -36 129 -172 519 -187 535 -15
17 -31 20 -105 20 -73 0 -90 -3 -104 -19z m-201 -210 c3 -5 2 -12 -3 -15 -5
-3 -9 1 -9 9 0 17 3 19 12 6z m-785 -443 c30 -40 85 -107 122 -149 l67 -76
-32 -39 c-83 -102 -170 -162 -265 -184 -44 -10 -122 -7 -122 4 0 2 11 29 25
59 40 92 90 245 115 355 13 56 26 102 29 102 3 0 31 -33 61 -72z m-493 -496
c14 -9 11 -17 -26 -63 -52 -65 -153 -150 -199 -166 -30 -10 -33 -9 -27 5 26
63 65 264 65 335 l0 38 85 -70 c47 -39 93 -74 102 -79z m2520 -47 c0 -8 -4
-12 -9 -9 -5 3 -6 10 -3 15 9 13 12 11 12 -6z m-141 -20 c-1 -8 -5 -17 -8 -21
-5 -4 -4 16 1 34 3 9 9 -1 7 -13z m40 0 c-1 -8 -5 -17 -8 -21 -5 -4 -4 16 1
34 3 9 9 -1 7 -13z m-116 -55 c0 -5 -5 -10 -11 -10 -5 0 -7 5 -4 10 3 6 8 10
11 10 2 0 4 -4 4 -10z m-392 -24 c43 -23 172 -171 172 -197 0 -8 -56 -109 -88
-159 -9 -14 -16 -32 -14 -40 1 -11 0 -11 -4 -2 -9 20 -44 -15 -37 -36 4 -15 3
-15 -7 -2 -8 11 -13 12 -16 3 -6 -13 -46 0 -76 25 -9 8 -21 11 -27 7 -7 -3 -8
0 -5 9 3 8 -3 19 -15 25 -11 6 -36 32 -56 57 l-35 46 52 102 c44 85 108 176
125 176 2 0 16 -6 31 -14z m634 -17 c39 -16 122 -101 111 -115 -23 -31 -123
-186 -152 -237 -40 -70 -39 -71 -125 63 -109 167 -101 149 -81 187 10 18 23
33 28 33 6 0 7 3 4 7 -4 3 9 17 28 30 19 13 35 28 35 34 0 6 4 8 9 4 6 -3 16
1 23 8 13 15 63 9 120 -14z m-238 3 c3 -5 -1 -9 -9 -9 -8 0 -12 4 -9 9 3 4 7
8 9 8 2 0 6 -4 9 -8z m-926 -61 c12 -11 22 -22 22 -25 0 -3 23 -34 50 -68 28
-34 50 -68 50 -74 0 -21 -71 -133 -117 -184 -53 -59 -98 -75 -155 -58 -63 19
-64 26 -19 129 23 50 41 96 41 101 0 6 11 32 25 60 14 27 25 54 25 60 0 14 40
78 48 78 4 -1 17 -9 30 -19z m817 -41 c3 -5 1 -10 -4 -10 -6 0 -11 5 -11 10 0
6 2 10 4 10 3 0 8 -4 11 -10z m903 -70 c85 -45 182 -140 144 -140 -19 0 -93
-79 -131 -139 l-41 -63 -10 28 c-12 31 -74 154 -113 222 -13 23 -27 39 -31 35
-4 -4 -4 -1 -1 8 3 8 -4 25 -15 37 l-21 22 33 15 c47 22 117 12 186 -25z
m-973 -30 c3 -6 -1 -7 -9 -4 -18 7 -21 14 -7 14 6 0 13 -4 16 -10z m-2736 -88
l65 -16 -65 -59 c-101 -93 -99 -94 -99 14 0 83 2 91 18 84 9 -4 46 -14 81 -23z
m2771 14 c0 -2 -7 -7 -16 -10 -8 -3 -12 -2 -9 4 6 10 25 14 25 6z m-1277 -152
c75 -92 74 -87 17 -143 -41 -38 -92 -69 -139 -81 -23 -6 -45 -10 -47 -8 -2 2
12 49 30 104 19 54 40 125 46 157 7 31 16 57 19 56 3 0 37 -38 74 -85z m1175
41 c-3 -3 -9 2 -12 12 -6 14 -5 15 5 6 7 -7 10 -15 7 -18z m1615 -35 c35 -17
86 -51 112 -74 l48 -44 -41 -7 c-22 -3 -67 -19 -100 -35 l-60 -28 -6 24 c-4
14 -23 57 -42 97 -59 120 -59 116 -14 106 21 -5 68 -23 103 -39z m-1800 -55
c-3 -9 -8 -14 -10 -11 -3 3 -2 9 2 15 9 16 15 13 8 -4z m84 -20 c0 -8 -4 -15
-9 -15 -10 0 -11 14 -1 23 9 10 10 9 10 -8z m-1542 -195 c19 -12 35 -27 35
-33 0 -15 -75 -94 -103 -108 -17 -10 -18 -8 -13 18 3 15 8 46 11 68 16 108 16
110 26 93 5 -9 25 -26 44 -38z m-1421 -47 c-51 -69 -106 -133 -114 -133 -4 0
-15 21 -25 48 -9 26 -23 61 -31 79 -8 17 -14 33 -14 36 0 3 48 6 106 6 l105 1
-27 -37z m5246 -116 c45 -30 170 -155 170 -171 0 -4 -8 -5 -17 -1 -10 4 -54 9
-98 12 l-81 6 -13 80 c-7 45 -17 90 -23 100 -11 22 -10 22 62 -26z m-4217
-224 c3 -5 -6 -16 -19 -26 -24 -18 -24 -18 -24 8 0 18 5 25 19 25 11 0 22 -3
24 -7z m-1327 -148 c-23 -55 -75 -124 -135 -182 l-56 -53 -18 22 c-10 13 -46
51 -79 86 -33 35 -58 65 -55 68 2 3 33 9 68 14 75 12 220 49 234 60 6 4 19 10
30 13 11 2 21 5 23 6 1 0 -4 -15 -12 -34z m6087 -164 c54 -50 115 -129 135
-173 13 -32 10 -34 -21 -14 -25 16 -178 72 -220 81 -27 5 -27 6 -12 34 8 16
18 54 21 85 6 52 8 55 27 44 12 -6 43 -31 70 -57z m-5073 0 c0 -3 -10 -19 -23
-34 l-22 -29 -17 34 -16 34 39 1 c21 0 39 -2 39 -6z m-1291 -396 c1 -44 -6
-74 -24 -113 -24 -52 -105 -146 -157 -184 -28 -19 -28 -19 -50 2 -13 12 -44
35 -70 52 -27 16 -48 34 -48 39 0 5 -17 18 -37 29 -40 21 -126 87 -131 99 -1
4 33 15 75 26 95 22 286 84 368 119 71 30 73 27 74 -69z m1071 6 c0 -5 -23
-35 -51 -65 l-51 -56 -32 42 -33 42 81 22 c45 12 82 22 84 23 1 0 2 -3 2 -8z
m5635 -168 c84 -86 110 -135 110 -208 0 -38 -6 -68 -15 -81 l-15 -22 -55 29
c-30 16 -71 36 -90 45 -67 31 -125 57 -169 76 l-44 18 63 43 c58 38 140 125
140 148 0 20 21 6 75 -48z m-5841 -304 c-9 -18 -37 -54 -62 -81 -45 -48 -45
-48 -66 -29 -12 10 -56 44 -100 75 -43 31 -71 56 -63 56 16 0 174 48 252 77
l50 19 3 -42 c2 -26 -4 -56 -14 -75z m-1040 -114 c33 -55 47 -126 35 -171 -20
-71 -123 -170 -255 -245 l-41 -23 -64 48 c-35 27 -87 61 -114 77 -54 30 -135
95 -135 108 0 10 105 61 206 101 41 17 132 57 202 90 70 33 130 60 134 60 3 0
18 -20 32 -45z m7098 -157 c37 -29 72 -62 78 -73 6 -11 22 -36 36 -55 20 -27
25 -43 21 -72 -5 -41 -40 -92 -87 -126 l-30 -23 -83 47 c-284 162 -299 172
-275 191 7 6 56 35 108 66 52 31 106 65 120 76 14 11 30 21 35 21 6 0 40 -24
77 -52z m-6141 -128 c20 -55 12 -92 -31 -138 -34 -38 -126 -102 -145 -102 -17
0 -195 119 -195 131 0 10 70 44 165 80 28 11 75 32 105 48 30 16 62 29 70 28
8 -1 22 -22 31 -47z m-1218 -366 c23 -15 44 -30 47 -33 3 -4 32 -28 66 -54 61
-47 115 -113 128 -153 10 -32 -33 -78 -131 -141 -46 -29 -86 -53 -91 -53 -4 0
-24 -11 -44 -25 -20 -14 -41 -25 -46 -25 -25 0 -157 93 -224 159 -96 95 -103
115 -52 171 21 23 56 51 77 63 132 72 213 115 220 116 4 1 26 -11 50 -25z
m7387 -82 c65 -37 148 -110 167 -145 14 -28 13 -30 -25 -65 -21 -21 -98 -68
-170 -105 l-132 -69 -63 49 c-76 60 -121 124 -113 158 8 33 75 87 187 150 52
30 95 54 97 54 1 1 25 -12 52 -27z m-6325 -35 c66 -48 125 -110 125 -132 0
-20 -63 -69 -141 -110 -37 -19 -69 -35 -72 -35 -14 0 -164 124 -180 150 l-19
30 37 35 c36 33 159 104 180 105 6 0 38 -19 70 -43z m69 -537 c57 -34 111 -69
121 -80 16 -18 15 -20 -35 -47 -29 -15 -82 -47 -118 -70 -35 -24 -69 -43 -75
-43 -16 0 -90 71 -114 109 -34 54 -30 80 20 128 40 39 74 62 90 63 4 0 54 -27
111 -60z m6240 -86 c100 -66 166 -120 166 -136 0 -10 -163 -88 -183 -88 -7 0
-17 -4 -22 -8 -6 -5 -37 -19 -70 -32 -33 -13 -75 -32 -92 -42 l-33 -19 -25 28
c-14 15 -37 51 -51 80 -36 72 -28 120 32 179 54 54 145 115 163 108 7 -2 59
-34 115 -70z m-7286 -11 c139 -80 252 -160 252 -177 0 -15 -30 -36 -190 -131
-63 -37 -130 -79 -149 -93 -41 -30 -50 -26 -142 63 -155 151 -148 237 31 365
30 21 61 39 68 40 7 0 66 -30 130 -67z m1042 -422 c41 -22 101 -49 133 -61 31
-12 57 -23 57 -25 0 -1 -27 -31 -61 -66 l-60 -62 -60 59 c-33 32 -68 77 -79
100 -20 40 -27 94 -13 94 4 0 41 -18 83 -39z m6031 -152 c31 -24 76 -57 100
-74 l43 -29 -34 -9 c-104 -27 -262 -81 -314 -107 -32 -17 -63 -30 -67 -30 -14
0 -10 64 6 103 25 61 62 108 126 159 40 31 65 46 73 40 6 -5 36 -29 67 -53z
m-7040 -154 c76 -41 143 -75 147 -75 5 0 33 -12 63 -26 30 -15 69 -32 87 -38
l33 -12 -53 -36 c-61 -42 -125 -106 -161 -161 l-26 -38 -78 69 c-125 110 -195
239 -178 326 10 47 16 66 21 66 3 0 68 -34 145 -75z m1345 -211 l81 -28 -13
-36 c-7 -19 -16 -48 -19 -65 l-7 -30 -51 57 c-57 62 -108 144 -86 136 8 -3 50
-18 95 -34z m5466 -277 c16 -16 28 -30 28 -33 0 -2 -17 -4 -37 -4 -21 -1 -74
-10 -118 -21 -44 -11 -84 -21 -90 -22 -5 -1 -16 -6 -22 -10 -49 -31 48 142
109 196 20 17 22 16 62 -30 22 -27 53 -61 68 -76z m-6462 -199 c47 -20 119
-46 160 -59 41 -12 76 -23 78 -24 1 -1 -12 -29 -29 -62 -20 -39 -32 -80 -36
-122 -3 -34 -9 -63 -12 -66 -11 -6 -130 104 -171 160 -51 70 -90 145 -97 191
-5 33 -4 37 8 28 8 -6 52 -27 99 -46z m1451 -26 c4 -4 10 -29 14 -56 l7 -48
-44 30 c-24 16 -55 43 -70 59 l-27 28 57 -3 c31 -2 60 -7 63 -10z m4608 -219
c1 -7 -21 -12 -59 -15 -33 -1 -60 0 -60 3 0 3 19 26 43 51 l42 46 17 -36 c9
-21 17 -42 17 -49z m-4077 -166 c10 -21 18 -42 18 -47 0 -15 -98 37 -148 78
l-44 36 59 26 58 27 19 -41 c11 -23 28 -58 38 -79z m928 93 c-8 -5 -19 -10
-25 -10 -5 0 -3 5 5 10 8 5 20 10 25 10 6 0 3 -5 -5 -10z m32 -22 c-9 -9 -15
-9 -24 1 -11 11 -10 13 5 8 10 -4 17 -2 17 5 0 6 3 8 7 5 4 -4 1 -13 -5 -19z
m-75 -7 c0 -11 -5 -17 -9 -15 -4 3 -8 0 -8 -7 0 -7 -3 -10 -6 -7 -4 5 16 48
23 48 1 0 1 -9 0 -19z m97 -6 c-10 -8 -23 -15 -28 -15 -6 0 -1 7 10 15 10 8
23 15 28 15 6 0 1 -7 -10 -15z m-155 -12 c-12 -15 -12 -16 4 -10 9 3 17 2 17
-3 0 -11 -23 -13 -33 -3 -7 6 10 33 20 33 3 0 -1 -8 -8 -17z m105 8 c4 -5 -3
-7 -14 -4 -23 6 -26 13 -6 13 8 0 17 -4 20 -9z m79 -3 c-4 -7 -8 -19 -8 -27 0
-8 -6 -15 -13 -17 -7 -1 -8 0 -2 3 17 8 11 23 -7 17 -12 -4 -9 1 7 15 29 24
34 26 23 9z m-83 -30 c0 -6 -8 -4 -17 3 -15 12 -16 12 -10 -3 3 -10 2 -18 -3
-18 -11 0 -14 23 -4 33 8 8 34 -3 34 -15z m110 18 c0 -3 -4 -8 -10 -11 -5 -3
-10 -1 -10 4 0 6 5 11 10 11 6 0 10 -2 10 -4z m-52 -71 c13 -22 18 -34 11 -27
-19 17 -29 15 -22 -5 5 -15 3 -14 -10 2 -9 11 -17 26 -17 33 0 6 -4 12 -10 12
-5 0 -10 5 -10 11 0 8 5 8 15 -1 8 -7 15 -19 15 -27 0 -8 5 -11 11 -8 7 5 5
15 -5 31 -9 13 -16 29 -15 36 0 9 3 8 6 -2 4 -8 17 -33 31 -55z m-118 45 c0
-5 -5 -10 -11 -10 -5 0 -7 5 -4 10 3 6 8 10 11 10 2 0 4 -4 4 -10z m168 -47
c-15 -18 -26 -16 -38 7 -9 16 -8 18 5 14 8 -3 12 -10 9 -15 -3 -5 -1 -9 5 -9
18 0 23 20 7 26 -9 3 -13 10 -10 16 3 5 12 1 19 -9 9 -13 10 -22 3 -30z m-188
27 c8 -5 11 -10 5 -10 -5 0 -17 5 -25 10 -8 5 -10 10 -5 10 6 0 17 -5 25 -10z
m47 -6 c-3 -3 -12 -4 -19 -1 -8 3 -5 6 6 6 11 1 17 -2 13 -5z m-813 -12 c3 -5
-1 -9 -9 -9 -8 0 -12 4 -9 9 3 4 7 8 9 8 2 0 6 -4 9 -8z m746 -3 c0 -5 -5 -7
-12 -3 -8 5 -9 1 -4 -12 5 -14 4 -16 -5 -7 -6 6 -8 16 -5 22 9 14 26 14 26 0z
m55 -9 c-3 -5 -12 -10 -18 -10 -7 0 -6 4 3 10 19 12 23 12 15 0z m205 -10 c0
-5 -2 -10 -4 -10 -3 0 -8 5 -11 10 -3 6 -1 10 4 10 6 0 11 -4 11 -10z m-601
-47 c13 -27 38 -73 57 -104 39 -65 41 -75 17 -78 -45 -8 -138 -2 -141 8 -2 6
-8 11 -14 11 -6 0 -29 12 -52 27 l-42 28 56 51 c30 29 62 64 69 78 8 14 17 26
21 26 3 0 16 -21 29 -47z m391 27 c8 -5 11 -10 5 -10 -5 0 -17 5 -25 10 -8 5
-10 10 -5 10 6 0 17 -5 25 -10z m-36 -22 c-5 -7 -2 -9 7 -6 10 4 15 -1 16 -12
2 -17 0 -17 -17 -3 -17 14 -19 33 -4 33 3 0 2 -5 -2 -12z m-117 -44 c-3 -3
-12 -4 -19 -1 -8 3 -5 6 6 6 11 1 17 -2 13 -5z m79 -8 c13 2 24 0 24 -4 0 -14
-53 -8 -56 6 -1 7 0 8 2 3 3 -5 16 -7 30 -5z m-100 -52 c1 -9 0 -13 -4 -10 -3
4 -7 14 -8 22 -1 9 0 13 4 10 3 -4 7 -14 8 -22z m2983 -55 c0 -68 -3 -78 -15
-68 -8 6 -14 8 -14 3 0 -5 -4 -3 -9 4 -4 7 -24 14 -43 15 -29 2 -34 5 -28 17
9 16 99 110 105 110 3 0 4 -36 4 -81z m-2915 63 c3 -5 -1 -9 -9 -9 -8 0 -15 4
-15 9 0 4 4 8 9 8 6 0 12 -4 15 -8z m15 -36 c9 -10 8 -15 -2 -19 -8 -3 -13 3
-13 14 0 23 0 23 15 5z m-62 -20 c18 -21 18 -21 -3 -3 -11 9 -23 14 -26 11 -3
-3 -8 -1 -12 4 -11 18 25 8 41 -12z m-383 -4 c3 -5 -1 -9 -9 -9 -8 0 -12 4 -9
9 3 4 7 8 9 8 2 0 6 -4 9 -8z m276 -17 c-7 -8 -17 -15 -23 -15 -6 0 -2 7 9 15
25 19 30 19 14 0z m91 -2 c13 -16 12 -17 -3 -4 -17 13 -22 21 -14 21 2 0 10
-8 17 -17z m-61 -3 c0 -5 -5 -10 -11 -10 -5 0 -7 5 -4 10 3 6 8 10 11 10 2 0
4 -4 4 -10z m-2113 -25 c31 -8 92 -15 134 -15 l77 0 7 -52 c8 -58 27 -137 44
-181 l11 -29 -57 33 c-32 18 -88 57 -124 86 -68 55 -178 173 -160 173 5 0 36
-7 68 -15z m1849 3 c3 -4 -1 -5 -10 -4 -8 1 -18 5 -22 8 -3 4 1 5 10 4 8 -1
18 -5 22 -8z m3078 4 c2 -4 -5 -9 -17 -9 -17 -2 -19 0 -7 7 18 12 18 12 24 2z
m-2819 -11 c3 -5 2 -12 -3 -15 -5 -3 -9 1 -9 9 0 17 3 19 12 6z m-165 -7 c0
-8 -19 -13 -24 -6 -3 5 1 9 9 9 8 0 15 -2 15 -3z m120 0 c0 -8 -19 -13 -24 -6
-3 5 1 9 9 9 8 0 15 -2 15 -3z m144 -3 c-9 -9 -34 -9 -34 -1 0 5 9 8 20 7 10
-1 17 -3 14 -6z m2601 -10 c3 -5 2 -12 -3 -15 -5 -3 -9 1 -9 9 0 17 3 19 12 6z
m82 -16 c0 -8 -4 -12 -9 -9 -5 3 -6 10 -3 15 9 13 12 11 12 -6z m-2940 -10 c0
-8 -4 -12 -9 -9 -5 3 -6 10 -3 15 9 13 12 11 12 -6z m3156 0 c-3 -9 -8 -14
-10 -11 -3 3 -2 9 2 15 9 16 15 13 8 -4z m-340 -10 c4 -8 3 -16 -1 -19 -4 -3
-9 4 -9 15 -2 23 3 25 10 4z m221 -21 c3 -8 2 -12 -4 -9 -6 3 -10 10 -10 16 0
14 7 11 14 -7z m-3040 -12 c3 -5 -1 -9 -9 -9 -8 0 -12 4 -9 9 3 4 7 8 9 8 2 0
6 -4 9 -8z m606 4 c0 -3 -4 -8 -10 -11 -5 -3 -10 -1 -10 4 0 6 5 11 10 11 6 0
10 -2 10 -4z m2300 0 c0 -3 -4 -8 -10 -11 -5 -3 -10 -1 -10 4 0 6 5 11 10 11
6 0 10 -2 10 -4z m-2439 -53 c-6 -10 -11 -13 -11 -5 0 7 -5 10 -12 6 -7 -4 -8
-3 -4 5 4 6 12 8 18 5 8 -5 9 -1 4 12 -5 14 -4 16 4 7 9 -8 9 -16 1 -30z
m2234 27 c3 -5 1 -10 -4 -10 -6 0 -11 5 -11 10 0 6 2 10 4 10 3 0 8 -4 11 -10z
m45 6 c0 -3 -4 -8 -10 -11 -5 -3 -10 -1 -10 4 0 6 5 11 10 11 6 0 10 -2 10 -4z
m-2409 -33 c12 -16 12 -17 -2 -6 -9 7 -20 9 -24 5 -5 -4 -5 -1 -1 6 9 16 11
15 27 -5z m229 6 c13 -9 12 -10 -2 -5 -10 3 -20 1 -23 -4 -4 -6 2 -10 11 -10
10 0 15 -3 11 -6 -12 -12 -37 5 -31 21 7 18 14 19 34 4z m2056 -15 c1 -9 0
-13 -4 -10 -3 4 -7 14 -8 22 -1 9 0 13 4 10 3 -4 7 -14 8 -22z m-2106 12 c0
-2 -7 -7 -16 -10 -8 -3 -12 -2 -9 4 6 10 25 14 25 6z m2190 -16 c0 -5 -5 -10
-11 -10 -5 0 -7 5 -4 10 3 6 8 10 11 10 2 0 4 -4 4 -10z m40 0 c0 -5 -2 -10
-4 -10 -3 0 -8 5 -11 10 -3 6 -1 10 4 10 6 0 11 -4 11 -10z m-2222 -25 c-3 -3
-9 2 -12 12 -6 14 -5 15 5 6 7 -7 10 -15 7 -18z m2277 8 c-7 -19 -41 -181 -47
-223 -3 -25 -3 -25 -48 15 -25 23 -58 49 -73 59 -27 17 -28 19 -12 36 10 11
14 24 9 31 -4 8 -3 10 5 5 15 -10 43 13 34 28 -3 6 -3 8 2 4 4 -4 20 1 34 11
14 10 36 22 49 25 12 4 22 12 22 17 0 5 7 9 16 9 11 0 14 -5 9 -17z m-2458
-10 c0 -9 -4 -10 -12 -3 -7 5 -15 7 -18 3 -4 -3 -7 -1 -7 5 0 6 8 10 18 9 10
0 19 -7 19 -14z m89 5 c3 -4 -1 -5 -10 -4 -8 1 -18 5 -22 8 -3 4 1 5 10 4 8
-1 18 -5 22 -8z m44 2 c-8 -5 -19 -10 -25 -10 -5 0 -3 5 5 10 8 5 20 10 25 10
6 0 3 -5 -5 -10z m25 -10 c-3 -5 -1 -10 6 -10 7 0 10 -3 6 -6 -9 -9 -28 6 -22
17 4 5 8 9 11 9 3 0 2 -4 -1 -10z m-104 -23 c-8 -8 -14 -7 -23 2 -11 10 -9 11
6 5 15 -6 17 -4 11 6 -6 9 -4 11 4 5 9 -5 10 -10 2 -18z m80 -2 c0 -6 7 -14
15 -18 8 -5 12 -12 9 -18 -9 -14 18 -11 42 6 14 10 24 12 28 5 4 -6 3 -9 -2
-8 -4 1 -18 -4 -31 -11 -25 -13 -57 -8 -48 8 3 5 -1 12 -10 15 -8 3 -13 10
-10 15 4 5 1 12 -4 14 -7 4 -6 5 1 3 6 -1 10 -6 10 -11z m2929 11 c0 -2 -8
-10 -17 -17 -16 -13 -17 -12 -4 4 13 16 21 21 21 13z m-2880 -26 c0 -5 -2 -10
-4 -10 -3 0 -8 5 -11 10 -3 6 -1 10 4 10 6 0 11 -4 11 -10z m-78 -7 c-6 -2 -9
-10 -6 -15 4 -7 2 -8 -4 -4 -18 11 -14 26 6 25 10 0 12 -3 4 -6z m1959 -140
c13 -16 12 -17 -3 -4 -10 7 -18 15 -18 17 0 8 8 3 21 -13z m-3477 -100 c13
-43 46 -121 73 -174 l48 -96 -39 9 c-50 11 -139 55 -191 93 -44 31 -165 146
-165 155 0 3 16 7 36 8 42 3 127 34 169 62 17 11 33 20 37 20 3 0 18 -35 32
-77z m3426 49 c0 -4 -9 -25 -20 -46 -10 -22 -17 -43 -14 -47 3 -5 1 -9 -5 -9
-5 0 -12 -9 -15 -20 -3 -11 -9 -30 -12 -41 -3 -12 -2 -19 3 -16 5 3 9 -3 9
-13 0 -14 -3 -16 -13 -8 -9 7 -13 7 -13 0 0 -6 -3 -19 -7 -29 -6 -16 -5 -17
13 -3 17 13 18 13 7 0 -6 -8 -11 -19 -11 -23 0 -5 -4 -12 -8 -15 -4 -4 -4 -1
0 6 4 6 3 12 -2 12 -5 0 -13 -19 -17 -42 -4 -24 -9 -47 -11 -53 -14 -45 -23
-98 -18 -107 4 -7 2 -8 -4 -4 -8 5 -12 -2 -13 -21 0 -24 -7 -22 -12 4 -1 5
-14 20 -30 35 -15 16 -24 28 -20 28 4 0 1 5 -7 10 -8 5 -15 13 -15 18 0 5 -8
16 -17 26 -18 17 -38 14 -38 -5 0 -6 4 -8 9 -4 6 3 15 -4 21 -16 7 -12 8 -19
2 -15 -6 3 -13 0 -16 -6 -3 -7 -3 -2 0 11 4 13 2 21 -3 18 -5 -3 -18 3 -27 15
-15 17 -15 20 -3 15 9 -3 20 0 25 6 13 16 -33 71 -50 61 -8 -5 -9 -2 -5 10 6
14 3 16 -13 11 -11 -4 -21 -2 -21 4 -3 26 -4 30 -11 37 -5 4 -8 2 -8 -5 0 -7
-4 -9 -10 -6 -5 3 -10 1 -10 -4 0 -6 4 -11 8 -11 5 0 13 -10 19 -21 7 -18 4
-27 -14 -45 -25 -25 -39 -32 -28 -14 3 6 -1 10 -10 10 -10 0 -13 -5 -9 -12 4
-7 3 -8 -5 -4 -17 11 -2 27 21 24 34 -5 45 25 19 53 l-21 23 22 12 c23 13 53
1 43 -16 -3 -5 -1 -11 4 -14 5 -3 30 20 55 52 72 89 127 141 175 164 62 30
131 46 131 30z m47 -40 c0 -10 -6 -19 -13 -19 -9 0 -9 5 -1 19 7 10 13 18 14
18 1 0 1 -8 0 -18z m54 -5 c-10 -9 -11 -8 -5 6 3 10 9 15 12 12 3 -3 0 -11 -7
-18z m-96 4 c3 -5 2 -12 -3 -15 -5 -3 -9 1 -9 9 0 17 3 19 12 6z m-690 -12 c6
-3 20 -4 33 -3 13 1 26 -5 29 -13 5 -12 7 -12 14 -1 7 10 9 11 9 0 0 -7 5 -10
10 -7 6 4 10 3 9 -2 -3 -20 2 -27 11 -13 9 13 11 13 19 0 5 -8 7 -18 5 -22 -3
-4 -1 -8 5 -8 5 0 11 3 14 8 2 4 2 2 1 -5 -4 -15 24 -25 29 -10 2 7 14 0 30
-17 14 -15 31 -25 36 -21 6 3 11 1 11 -4 0 -6 -8 -11 -18 -11 -11 0 -18 -8
-19 -21 -2 -19 0 -20 15 -7 9 8 24 18 32 22 8 4 3 -2 -13 -14 l-27 -22 20 -28
c23 -32 25 -40 9 -40 -5 0 -8 4 -4 9 3 5 1 12 -4 15 -5 4 -11 1 -14 -6 -2 -7
-2 -3 0 10 4 23 4 23 -21 5 -13 -10 -21 -22 -18 -27 3 -5 -9 0 -27 10 -17 10
-27 20 -21 22 5 2 10 8 10 13 0 6 -5 7 -10 4 -6 -3 -17 1 -26 9 -8 9 -11 16
-6 16 5 0 9 7 9 15 0 20 -13 19 -21 -2 -5 -11 -10 -13 -17 -6 -8 8 -8 17 0 31
15 28 14 32 -4 25 -9 -3 -13 -8 -11 -11 3 -3 1 -11 -5 -18 -10 -13 -9 -15 39
-52 26 -20 28 -13 -31 -142 -16 -36 -30 -75 -31 -87 0 -11 -4 -19 -8 -17 -4 3
-11 -10 -16 -28 -13 -48 -83 -198 -93 -198 -4 0 -34 30 -66 68 -32 37 -60 69
-63 72 -3 3 -13 19 -22 35 -10 17 -22 29 -28 27 -7 -1 -9 1 -6 6 3 5 -2 18
-12 28 -36 42 -42 60 -24 78 14 14 14 16 2 11 -11 -4 -16 1 -17 16 -2 18 0 19
15 8 14 -11 15 -11 5 1 -18 20 -16 35 2 20 13 -11 18 -11 28 0 10 10 9 12 -5
7 -10 -3 -20 -2 -23 3 -6 9 2 12 21 9 4 0 10 5 15 13 5 7 13 14 19 14 5 1 13
2 16 3 4 0 0 9 -7 18 -12 15 -12 16 4 10 12 -5 16 -3 11 5 -5 8 -2 9 9 5 10
-4 16 -2 14 6 -1 7 4 11 11 10 6 -2 11 3 10 10 -2 6 3 11 10 9 7 -1 27 6 45
15 18 9 35 17 39 18 3 0 10 3 13 7 4 4 23 1 41 -7 19 -8 34 -11 34 -8 0 3 7 0
15 -7 9 -7 18 -10 22 -7 3 4 -2 10 -11 13 -14 5 -15 9 -4 16 8 5 3 7 -16 4
-17 -3 -36 0 -43 6 -7 6 -13 7 -13 4 0 -4 -6 -4 -12 1 -13 8 -19 10 -40 12 -6
0 -3 7 8 15 10 8 16 18 11 22 -4 4 -7 2 -7 -5 0 -7 -4 -9 -10 -6 -5 3 -10 2
-10 -2 0 -5 -9 -9 -21 -10 -17 -2 -18 1 -9 12 7 8 17 12 24 8 6 -4 5 0 -2 9
-14 18 -48 17 -44 -1 2 -9 -3 -9 -16 -2 -17 9 -19 7 -15 -25 l4 -35 -21 21
c-11 11 -24 20 -30 20 -5 0 -10 4 -10 8 0 12 50 33 61 26 5 -3 18 4 27 16 l18
22 18 -27 c11 -16 23 -24 32 -21 8 3 17 -1 21 -10 5 -12 7 -13 14 -3 4 7 3 19
-3 26 -6 7 -7 13 -3 13 4 0 2 6 -4 13 -9 11 -6 14 12 13 12 -1 27 -4 32 -7z
m-1404 -56 c13 -16 12 -17 -3 -4 -10 7 -18 15 -18 17 0 8 8 3 21 -13z m1283
-4 c-16 -18 -4 -36 16 -24 6 3 13 0 16 -9 3 -8 14 -13 26 -11 11 3 17 1 14 -3
-4 -4 -11 -7 -14 -7 -4 -1 -23 -9 -42 -19 -23 -13 -35 -15 -38 -7 -5 14 -23
14 -19 0 1 -6 -3 -13 -9 -16 -7 -2 -11 4 -10 14 0 10 -6 18 -14 18 -8 0 -20 6
-26 13 -8 11 -13 10 -25 -5 -13 -16 -13 -17 4 -4 19 15 24 2 5 -17 -9 -9 -8
-15 8 -26 10 -8 21 -10 22 -5 5 12 22 12 22 0 0 -5 -13 -14 -30 -21 -16 -7
-35 -20 -42 -29 -12 -14 -11 -15 5 -2 14 11 20 12 30 2 7 -7 8 -12 2 -10 -13
2 -75 -23 -75 -31 0 -4 -7 -15 -16 -26 -8 -10 -12 -13 -8 -5 5 10 3 12 -6 6
-9 -6 -10 -1 -5 16 3 13 3 20 -2 14 -10 -13 -33 -17 -33 -7 0 5 12 14 26 20
14 7 22 17 19 22 -8 13 8 13 21 0 6 -6 15 -6 24 0 13 9 13 11 0 21 -13 10 -13
10 0 6 12 -4 15 3 14 32 -3 53 -3 53 -16 45 -9 -5 -8 -2 1 10 8 9 20 15 26 12
7 -2 17 0 23 6 7 7 16 6 29 -1 16 -11 15 -11 -7 -7 -23 5 -22 4 4 -8 15 -7 39
-12 53 -10 18 2 23 -1 19 -12 -4 -11 -2 -13 11 -6 9 6 18 17 19 26 2 14 0 15
-12 5 -10 -8 -14 -8 -14 0 0 6 -5 11 -11 11 -5 0 -7 -5 -3 -12 4 -7 3 -8 -5
-4 -6 4 -9 12 -6 17 4 5 1 9 -6 9 -15 0 -2 15 14 15 7 1 11 6 10 11 -1 6 5 11
13 11 12 0 12 -3 -2 -18z m847 -12 c-10 -9 -11 -8 -5 6 3 10 9 15 12 12 3 -3
0 -11 -7 -18z m-2191 -21 c0 -2 -7 -7 -16 -10 -8 -3 -12 -2 -9 4 6 10 25 14
25 6z m644 -17 c-3 -5 0 -16 6 -24 7 -8 9 -15 4 -15 -5 0 -1 -7 9 -14 17 -13
17 -16 -8 -52 -21 -31 -24 -41 -13 -49 16 -12 23 -39 8 -30 -5 3 -10 0 -10 -7
0 -10 -3 -9 -10 2 -6 9 -5 17 3 22 9 6 8 8 -2 8 -8 0 -11 6 -7 16 3 8 1 25 -5
36 -8 15 -8 18 0 14 7 -5 8 -1 4 10 -5 14 -3 16 13 11 17 -6 17 -6 2 6 -15 12
-15 14 0 25 15 10 15 11 -2 5 -13 -4 -17 -3 -12 5 3 6 2 13 -3 17 -6 3 -8 -3
-6 -13 2 -11 -3 -19 -10 -19 -8 0 -11 5 -8 10 3 6 1 7 -6 3 -6 -4 -9 -11 -6
-16 3 -4 -3 -14 -12 -21 -15 -12 -16 -12 -10 4 4 11 3 16 -4 12 -6 -4 -8 -14
-5 -22 4 -9 2 -11 -6 -7 -7 5 -8 3 -3 -6 6 -9 4 -11 -5 -5 -9 5 -11 4 -6 -4 4
-6 12 -9 17 -6 5 4 9 2 9 -3 0 -5 -10 -14 -22 -20 -13 -6 -17 -11 -10 -11 8
-1 10 -6 6 -13 -5 -9 -2 -9 9 1 19 15 23 1 5 -17 -9 -9 -15 -5 -28 16 -16 26
-16 28 12 70 16 23 34 42 39 42 6 0 7 5 3 12 -4 6 -3 8 4 4 6 -3 18 4 26 16 9
12 16 17 16 10 0 -7 5 -10 10 -7 6 4 7 11 4 17 -4 7 -2 8 5 4 6 -4 9 -12 5
-17z m249 6 c-3 -9 -8 -14 -10 -11 -3 3 -2 9 2 15 9 16 15 13 8 -4z m1307 6
c0 -6 -4 -12 -8 -15 -5 -3 -9 1 -9 9 0 8 4 15 9 15 4 0 8 -4 8 -9z m-2110 -16
c0 -1 -10 -10 -22 -21 -14 -12 -18 -13 -10 -3 6 9 10 18 7 21 -3 2 2 5 10 5 8
0 15 -1 15 -2z m-656 -102 c87 -174 128 -248 148 -270 11 -12 17 -26 14 -32
-4 -5 -32 -19 -64 -31 -54 -21 -94 -22 -174 -7 -27 5 -168 97 -200 131 l-29
30 38 19 c50 26 150 130 188 195 17 28 31 52 33 52 1 0 22 -39 46 -87z m1486
77 c8 -5 11 -10 5 -10 -5 0 -17 5 -25 10 -8 5 -10 10 -5 10 6 0 17 -5 25 -10z
m340 -2 c0 6 5 12 10 12 16 0 12 -17 -6 -24 -20 -8 -36 2 -28 16 4 6 10 5 15
-3 6 -10 9 -11 9 -1z m-1103 -28 c2 -11 -1 -20 -5 -20 -4 0 -8 11 -8 25 0 28
8 24 13 -5z m1041 4 c2 -1 -1 -5 -7 -8 -5 -4 -15 4 -22 16 -12 22 -11 22 7 8
10 -8 20 -15 22 -16z m-1298 12 c0 -3 -4 -8 -10 -11 -5 -3 -10 -1 -10 4 0 6 5
11 10 11 6 0 10 -2 10 -4z m1005 -6 c3 -5 2 -10 -4 -10 -5 0 -13 5 -16 10 -3
6 -2 10 4 10 5 0 13 -4 16 -10z m55 0 c0 -5 -4 -10 -10 -10 -5 0 -10 5 -10 10
0 6 5 10 10 10 6 0 10 -4 10 -10z m-350 -25 c-8 -10 -8 -19 0 -35 9 -17 9 -25
-1 -34 -9 -8 -10 -8 -4 2 6 11 3 12 -13 3 -25 -14 -40 3 -22 24 10 12 10 15
-1 15 -7 0 -3 10 11 25 23 25 51 25 30 0z m320 5 c0 -5 -8 -10 -17 -10 -15 0
-16 2 -3 10 19 12 20 12 20 0z m66 1 c-4 -5 0 -12 6 -15 7 -3 2 -3 -11 0 -17
5 -21 3 -16 -6 6 -9 4 -11 -5 -5 -10 6 -9 11 5 22 22 15 28 17 21 4z m-1101
-21 c3 -5 1 -10 -4 -10 -6 0 -11 5 -11 10 0 6 2 10 4 10 3 0 8 -4 11 -10z m45
0 c0 -5 -2 -10 -4 -10 -3 0 -8 5 -11 10 -3 6 -1 10 4 10 6 0 11 -4 11 -10z
m173 -7 c-3 -7 -6 -13 -8 -13 -2 0 -5 6 -8 13 -3 8 1 14 8 14 7 0 11 -6 8 -14z
m89 -5 c-7 -27 -17 -29 -17 -4 0 13 5 23 11 23 6 0 9 -9 6 -19z m693 -8 c0
-27 -25 -34 -51 -16 -13 10 -14 15 -4 21 9 5 11 4 6 -3 -4 -7 -4 -12 1 -13 4
0 16 -2 25 -4 11 -2 16 3 15 16 -1 20 -17 27 -17 7 0 -6 -3 -9 -6 -5 -9 9 6
29 19 24 7 -2 12 -14 12 -27z m69 -10 c-6 -5 -24 21 -24 34 0 6 6 1 14 -10 8
-10 12 -21 10 -24z m-828 21 c-4 -5 -1 -11 6 -13 8 -3 6 -6 -4 -10 -11 -5 -15
-2 -13 10 5 23 4 22 11 22 3 0 3 -4 0 -9z m39 0 c3 -5 2 -12 -3 -15 -5 -3 -9
1 -9 9 0 17 3 19 12 6z m760 -11 c3 -6 -1 -7 -9 -4 -18 7 -21 14 -7 14 6 0 13
-4 16 -10z m84 7 c-2 -1 -13 -9 -24 -17 -19 -14 -19 -14 -6 3 7 9 18 17 24 17
6 0 8 -1 6 -3z m1125 -8 c3 -3 -5 -5 -19 -5 -13 0 -22 3 -19 7 4 8 30 6 38 -2z
m-1108 -14 c-1 -8 -5 -17 -8 -21 -5 -4 -4 16 1 34 3 9 9 -1 7 -13z m-791 -5
c3 -6 -1 -7 -9 -4 -18 7 -21 14 -7 14 6 0 13 -4 16 -10z m666 -17 c-12 -20
-14 -14 -5 12 4 9 9 14 11 11 3 -2 0 -13 -6 -23z m774 8 c-3 -6 -11 -11 -16
-11 -5 0 -4 6 3 14 14 16 24 13 13 -3z m-1444 -22 c8 -15 6 -17 -6 -13 -9 4
-13 9 -11 12 3 3 -2 11 -12 19 -16 12 -16 13 1 7 10 -4 22 -15 28 -25z m772
11 c3 -11 1 -18 -4 -14 -5 3 -9 12 -9 20 0 20 7 17 13 -6z m96 -17 c3 2 17 -8
30 -21 16 -17 18 -23 7 -19 -11 5 -15 3 -10 -4 4 -7 1 -10 -7 -7 -8 3 -13 12
-11 20 1 9 -4 18 -13 22 -8 3 -14 0 -12 -6 1 -7 -7 -13 -18 -15 -16 -3 -17 -2
-5 6 9 7 10 11 3 11 -6 0 -18 -8 -25 -18 -7 -10 -20 -17 -28 -17 -8 1 -20 -3
-26 -7 -7 -5 -14 -3 -17 5 -4 10 2 13 19 11 26 -2 58 22 49 37 -4 5 -1 9 5 9
7 0 9 7 6 16 -4 11 1 10 20 -5 15 -11 29 -19 33 -18z m741 22 c7 -9 10 -18 6
-22 -3 -3 -6 -1 -6 6 0 6 -10 16 -22 21 -16 6 -18 9 -7 9 9 1 22 -6 29 -14z
m267 -35 c1 -11 -2 -20 -7 -20 -4 0 -7 8 -5 18 1 9 -5 26 -14 37 -16 19 -15
20 4 3 12 -9 21 -26 22 -38z m-1983 24 c3 -8 2 -12 -4 -9 -6 3 -10 10 -10 16
0 14 7 11 14 -7z m821 -4 c-3 -5 1 -11 7 -13 10 -4 10 -6 1 -6 -7 -1 -17 8
-23 19 -9 16 -8 18 5 14 8 -3 13 -10 10 -14z m853 0 c7 -12 8 -20 2 -20 -5 0
-10 5 -10 11 0 5 -5 7 -12 3 -7 -4 -8 -3 -4 4 4 7 3 12 -1 12 -5 0 -14 -9 -21
-20 -10 -17 -10 -21 3 -26 8 -4 15 -11 15 -17 0 -5 -9 -2 -20 8 -15 14 -20 15
-21 4 0 -10 -2 -11 -6 -1 -2 6 -9 10 -14 6 -5 -3 -9 0 -9 6 0 7 7 10 15 6 9
-3 21 4 31 19 20 30 35 32 52 5z m-1203 2 c16 -11 16 -31 0 -61 -8 -16 -13
-30 -12 -33 1 -2 -5 4 -14 14 -15 16 -18 16 -30 2 -10 -13 -10 -17 2 -24 7 -5
14 -17 14 -27 0 -10 6 -17 13 -15 8 1 11 -2 7 -8 -5 -8 -11 -8 -20 0 -11 9
-19 8 -35 -3 -20 -14 -12 -36 8 -23 17 11 5 -38 -14 -53 -10 -9 -20 -23 -22
-31 -3 -14 -20 -30 -32 -30 -3 0 -12 5 -20 10 -12 7 -12 12 -2 22 15 15 16 38
1 38 -5 0 -8 -4 -5 -9 8 -12 -21 -34 -34 -26 -6 3 -8 11 -5 16 4 5 -3 9 -14 9
-12 0 -20 -6 -18 -12 1 -8 -8 -13 -20 -13 -13 0 -23 4 -22 9 0 5 -5 13 -13 18
-10 8 -10 9 2 5 8 -2 14 -10 13 -16 -2 -6 6 -11 17 -11 11 0 19 6 17 13 -1 7
8 12 23 12 15 0 24 -5 23 -12 -2 -7 1 -13 5 -13 21 0 20 16 -2 44 l-23 31 24
1 c20 2 22 0 11 -14 -10 -12 -10 -14 0 -8 6 4 12 2 12 -3 0 -6 5 -11 11 -11 5
0 8 4 4 9 -3 5 -1 12 5 16 6 4 8 10 5 15 -3 5 0 12 6 16 8 5 9 3 4 -7 -5 -7 4
-4 19 9 16 12 31 20 35 18 3 -2 12 2 19 10 15 17 8 18 -18 4 -16 -8 -18 -8
-14 5 3 8 11 12 18 8 6 -3 7 -2 3 2 -10 12 -39 16 -32 5 8 -13 -6 -41 -17 -34
-5 4 -5 11 1 18 6 7 8 15 5 19 -9 8 32 27 41 19 5 -4 5 -1 1 6 -4 7 -12 9 -18
6 -7 -4 -8 -2 -4 4 4 7 1 12 -6 12 -10 0 -10 2 1 9 11 7 11 10 0 15 -8 3 -5 5
6 3 11 -1 21 -8 21 -15 1 -6 2 -17 3 -23 0 -5 6 -7 12 -3 8 5 8 9 -1 14 -8 5
-9 10 -2 14 6 4 17 -5 25 -20 12 -22 15 -24 20 -10 5 11 3 15 -4 10 -7 -4 -10
-1 -7 7 3 8 12 13 19 11 11 -3 12 -1 1 10 -11 11 -14 10 -22 -2 -9 -14 -15 -7
-11 14 1 6 -3 6 -11 0 -8 -5 -5 -1 5 9 21 19 27 20 42 9z m1476 -9 c13 -16 12
-17 -3 -4 -10 7 -18 15 -18 17 0 8 8 3 21 -13z m-1891 -17 c-1 -5 4 -13 12
-18 11 -8 11 -9 0 -6 -8 2 -13 7 -12 12 1 5 -4 13 -12 18 -11 8 -11 9 0 6 8
-2 13 -7 12 -12z m84 -1 c-10 -8 -23 -15 -28 -15 -6 0 -1 7 10 15 10 8 23 15
28 15 6 0 1 -7 -10 -15z m641 5 c3 -6 -1 -7 -9 -4 -18 7 -21 14 -7 14 6 0 13
-4 16 -10z m880 -11 c11 -16 1 -19 -13 -3 -7 8 -8 14 -3 14 5 0 13 -5 16 -11z
m-690 -8 c-3 -5 0 -13 6 -17 8 -5 7 -9 -2 -15 -7 -4 -18 -5 -24 -1 -17 11 -35
11 -42 0 -3 -6 -1 -8 4 -5 13 8 32 -14 38 -43 3 -13 0 -20 -8 -17 -7 2 -12 12
-12 23 0 10 -6 18 -12 17 -7 -2 -13 1 -13 5 0 5 -6 9 -14 9 -9 0 -13 -8 -10
-24 3 -14 1 -22 -5 -19 -5 4 -13 1 -17 -5 -4 -7 -3 -9 3 -6 5 3 10 0 10 -8 0
-8 -5 -11 -10 -8 -6 3 -7 1 -3 -6 6 -8 12 -9 20 -2 7 6 16 8 19 4 4 -3 7 -1 7
5 0 7 -5 12 -11 12 -5 0 -7 5 -3 11 5 8 9 7 15 -4 14 -24 0 -45 -26 -42 -21 2
-23 -1 -14 -16 7 -15 6 -17 -6 -13 -8 4 -15 1 -15 -6 0 -6 4 -9 9 -6 10 7 23
-19 14 -28 -10 -10 -25 -7 -18 3 3 5 1 13 -5 16 -6 4 -10 3 -9 -2 1 -4 0 -10
-1 -13 -8 -22 -7 -39 3 -34 7 3 1 -4 -12 -15 -14 -13 -18 -21 -10 -21 11 0 11
-2 -1 -10 -8 -5 -11 -10 -6 -10 5 0 4 -6 -2 -13 -9 -10 -6 -13 13 -13 13 0 21
4 18 10 -4 5 -1 6 7 1 9 -6 11 -4 5 5 -5 8 -4 11 2 7 6 -4 10 3 10 16 0 12 3
30 8 40 6 15 10 16 17 5 8 -10 9 -9 5 4 -4 12 -1 16 14 13 10 -2 19 1 19 6 0
6 4 8 9 4 6 -3 8 3 6 15 -2 11 -1 19 3 19 19 -3 22 3 12 22 -9 16 -8 26 4 45
9 13 20 23 24 23 19 -3 23 2 12 16 -7 8 -16 12 -21 9 -5 -3 -9 0 -9 5 0 14 23
14 36 1 7 -7 11 -6 11 4 0 8 -5 12 -10 9 -6 -3 -7 -1 -3 5 4 7 11 12 16 12 11
0 9 -41 -3 -57 -6 -9 -5 -19 4 -30 13 -16 12 -17 -3 -5 -13 10 -17 10 -21 0
-2 -7 0 -21 5 -30 7 -14 5 -16 -8 -11 -11 4 -15 1 -12 -13 2 -11 -3 -19 -12
-19 -9 0 -14 -8 -12 -18 2 -9 -3 -17 -10 -17 -7 0 -19 -9 -26 -20 -7 -12 -17
-18 -22 -15 -14 8 -24 -15 -11 -28 8 -8 6 -16 -7 -30 -9 -10 -17 -22 -17 -26
0 -3 -3 -5 -7 -4 -5 2 -8 -2 -8 -9 0 -6 -7 -3 -15 8 -13 16 -14 16 -9 2 7 -21
-6 -24 -24 -6 -7 7 -12 8 -12 2 0 -5 -15 -10 -34 -10 l-34 0 29 35 c15 19 26
38 24 42 -3 4 9 19 26 33 17 14 25 26 17 26 -10 0 -9 3 2 10 13 8 13 10 1 10
-11 0 -9 4 5 14 10 8 16 18 12 22 -4 4 -2 14 4 22 7 8 13 24 14 36 3 37 23 76
39 76 9 0 18 7 21 15 5 11 11 12 24 5 22 -12 30 -13 29 -2 -2 12 1 22 7 22 3
0 3 -4 -1 -9z m-1270 -10 c-9 -8 -36 -10 -30 -2 2 4 11 8 20 8 8 0 13 -3 10
-6z m1118 -8 c-3 -7 -6 -13 -8 -13 -2 0 -5 6 -8 13 -3 8 1 14 8 14 7 0 11 -6
8 -14z m-673 -3 c0 -5 -2 -10 -4 -10 -3 0 -8 5 -11 10 -3 6 -1 10 4 10 6 0 11
-4 11 -10z m-404 -26 c1 -9 0 -13 -4 -10 -3 4 -7 14 -8 22 -1 9 0 13 4 10 3
-4 7 -14 8 -22z m600 -24 c2 0 0 9 -6 19 -13 25 -13 31 2 31 6 0 8 -3 5 -6 -3
-4 -2 -15 3 -25 7 -12 7 -20 0 -24 -8 -5 -7 -12 2 -23 8 -10 9 -13 1 -9 -11 7
-27 -8 -28 -25 0 -3 -4 -10 -8 -15 -5 -4 -7 -1 -5 7 2 8 -4 16 -12 16 -8 1
-18 2 -23 3 -4 0 -1 11 8 24 8 13 12 27 8 30 -3 4 -1 7 6 7 8 0 11 -6 7 -16
-4 -10 -2 -13 7 -9 6 4 3 -1 -7 -9 -11 -9 -15 -16 -9 -16 22 0 33 26 19 45 -8
11 -11 26 -8 33 4 11 9 7 19 -12 7 -14 16 -26 19 -26z m1590 38 c3 -4 -1 -5
-10 -4 -8 1 -18 5 -22 8 -3 4 1 5 10 4 8 -1 18 -5 22 -8z m-1811 -7 c3 -5 0
-13 -6 -17 -8 -5 -9 -3 -4 6 6 10 4 12 -9 7 -10 -4 -15 -3 -11 3 8 13 22 13
30 1z m1595 -16 c-14 -17 -30 -20 -30 -4 0 5 5 7 10 4 6 -3 10 -1 10 4 0 6 5
11 11 11 8 0 8 -5 -1 -15z m-1637 -15 c3 -11 1 -18 -4 -14 -5 3 -9 12 -9 20 0
20 7 17 13 -6z m1707 10 c0 -5 -7 -6 -17 -3 -11 4 -14 3 -9 -5 4 -7 2 -12 -3
-12 -12 0 -14 13 -4 23 10 10 33 8 33 -3z m-1667 -23 c4 3 7 4 7 0 0 -18 -21
-14 -30 5 -10 21 -10 21 3 6 8 -10 17 -15 20 -11z m32 13 c3 -5 2 -10 -4 -10
-5 0 -13 5 -16 10 -3 6 -2 10 4 10 5 0 13 -4 16 -10z m45 6 c0 -2 -7 -9 -15
-16 -13 -11 -14 -10 -9 4 5 14 24 23 24 12z m730 -8 c0 -11 -12 -10 -30 2 -12
7 -10 9 8 7 12 0 22 -5 22 -9z m62 1 c2 -2 1 -3 -1 -2 -2 2 -9 -2 -16 -7 -8
-7 -12 -5 -12 4 0 12 22 16 29 5z m683 1 c-3 -5 -1 -10 4 -10 6 0 11 -5 11
-11 0 -8 -5 -8 -15 1 -13 11 -12 30 1 30 3 0 2 -4 -1 -10z m50 -20 c3 -5 2
-10 -4 -10 -5 0 -13 5 -16 10 -3 6 -2 10 4 10 5 0 13 -4 16 -10z m58 -5 c-3
-9 -8 -14 -10 -11 -3 3 -2 9 2 15 9 16 15 13 8 -4z m203 0 c-1 -8 -5 -17 -8
-21 -5 -4 -4 16 1 34 3 9 9 -1 7 -13z m-1045 -23 c-7 -2 -5 -12 6 -28 12 -19
13 -24 2 -22 -7 2 -13 -3 -14 -10 0 -15 -25 -33 -36 -26 -10 6 -47 -48 -42
-62 2 -6 -6 -19 -18 -30 -22 -19 -22 -19 -10 4 6 12 9 22 5 22 -4 0 0 8 9 18
13 15 14 21 4 31 -9 10 -9 11 4 6 20 -8 34 11 34 45 1 14 6 26 13 26 7 1 16 2
21 3 5 0 8 12 6 26 -2 21 0 23 12 13 10 -8 11 -14 4 -16z m806 6 c-3 -8 -6 -5
-6 6 -1 11 2 17 5 13 3 -3 4 -12 1 -19z m-1587 -3 c0 -1 -12 -2 -26 -2 -17 0
-22 2 -13 7 10 7 39 3 39 -5z m1669 5 c-6 -5 -18 -6 -26 -3 -19 8 -16 11 13
11 17 0 22 -3 13 -8z m-109 -10 c0 8 3 11 6 7 3 -3 3 -10 0 -16 -8 -12 -36 -3
-36 11 0 6 6 5 15 -2 12 -10 15 -10 15 0z m-1478 -15 c1 -5 8 -16 17 -23 14
-11 13 -11 -7 -2 -13 6 -20 16 -16 22 5 7 1 9 -9 5 -10 -3 -17 -2 -17 4 0 13
31 7 32 -6z m1548 5 c-8 -5 -18 -6 -22 -4 -4 3 -8 1 -8 -5 0 -5 6 -12 13 -14
9 -4 9 -6 0 -6 -14 -1 -26 16 -19 27 2 4 15 8 28 9 17 2 19 0 8 -7z m57 -26
c-4 -15 -5 -14 -6 4 -1 15 -5 21 -13 16 -7 -5 -8 -3 -3 5 10 18 28 -2 22 -25z
m100 30 c-3 -3 -12 -4 -19 -1 -8 3 -5 6 6 6 11 1 17 -2 13 -5z m-1747 -23 c0
-5 -7 -12 -16 -15 -14 -5 -15 -4 -4 9 14 17 20 19 20 6z m1550 -26 c0 -5 -5
-3 -10 5 -5 8 -10 20 -10 25 0 6 5 3 10 -5 5 -8 10 -19 10 -25z m56 19 c-4
-12 -2 -15 9 -10 8 3 15 1 15 -5 0 -6 -7 -9 -17 -7 -17 3 -28 38 -11 38 6 0 7
-7 4 -16z m185 3 c-6 -8 -9 -16 -6 -19 3 -3 -3 -11 -12 -19 -16 -13 -17 -12
-4 4 7 9 10 17 6 17 -4 0 -2 7 5 15 7 8 15 15 17 15 3 0 0 -6 -6 -13z m-1761
-17 c0 -5 -4 -10 -10 -10 -5 0 -10 5 -10 10 0 6 5 10 10 10 6 0 10 -4 10 -10z
m1680 -7 c0 -3 -6 -3 -14 0 -8 3 -17 -1 -20 -9 -3 -9 -10 -13 -15 -10 -5 3
-12 -1 -15 -10 -3 -8 -10 -13 -15 -9 -5 3 -12 -4 -14 -15 -4 -17 -4 -17 -3 2
0 13 5 21 10 20 5 -2 13 3 18 12 5 9 13 14 18 11 4 -3 10 2 14 10 5 13 36 11
36 -2z m-790 -9 c0 -8 -19 -13 -24 -6 -3 5 1 9 9 9 8 0 15 -2 15 -3z m689 -10
c3 -4 -2 -4 -12 -1 -15 6 -17 3 -11 -16 8 -25 2 -22 -15 10 -10 20 -9 21 10
18 12 -3 24 -7 28 -11z m74 -21 c-4 -10 -2 -14 4 -10 6 4 14 0 17 -8 4 -13 2
-14 -14 -5 -21 11 -25 22 -13 33 11 11 13 8 6 -10z m77 3 c0 -2 -7 -6 -15 -10
-8 -3 -15 -1 -15 4 0 6 7 10 15 10 8 0 15 -2 15 -4z m-1700 -16 c-8 -5 -19
-10 -25 -10 -5 0 -3 5 5 10 8 5 20 10 25 10 6 0 3 -5 -5 -10z m807 -5 c0 -8
-4 -12 -9 -9 -5 3 -6 10 -3 15 9 13 12 11 12 -6z m-783 -13 c2 -4 1 -14 -4
-22 -7 -11 -12 -12 -21 -3 -6 6 -8 16 -5 22 8 13 23 14 30 3z m1581 -1 c-3 -5
-1 -12 5 -16 5 -3 10 -11 10 -18 0 -6 -7 -2 -15 9 -17 23 -19 34 -4 34 5 0 8
-4 4 -9z m88 -8 c-3 -7 -6 -13 -8 -13 -2 0 -5 6 -8 13 -3 8 1 14 8 14 7 0 11
-6 8 -14z m-1632 -8 c5 4 6 -1 2 -10 -5 -13 -7 -14 -14 -3 -5 7 -8 18 -8 23 0
6 3 4 6 -3 2 -6 9 -10 14 -7z m49 12 c0 -2 -10 -12 -22 -23 l-23 -19 19 23
c18 21 26 27 26 19z m1470 -17 c0 -5 -5 -10 -11 -10 -5 0 -7 5 -4 10 3 6 8 10
11 10 2 0 4 -4 4 -10z m90 2 c0 -4 -10 -9 -22 -9 -18 -2 -20 0 -8 7 18 12 30
13 30 2z m-805 -22 c3 -5 1 -10 -4 -10 -6 0 -11 5 -11 10 0 6 2 10 4 10 3 0 8
-4 11 -10z m-1639 -20 c0 -12 -4 -16 -9 -11 -5 5 -6 14 -3 20 10 15 12 14 12
-9z m866 -7 c10 -9 18 -23 18 -32 -1 -12 -3 -11 -12 4 -6 11 -18 26 -26 33 -9
6 -12 12 -7 12 5 0 17 -7 27 -17z m-585 -18 c0 -8 -4 -12 -9 -9 -5 3 -6 10 -3
15 9 13 12 11 12 -6z m563 11 c0 -2 -6 -9 -14 -15 -11 -9 -16 -9 -22 0 -4 8
-3 9 4 5 7 -4 12 -2 12 3 0 6 5 11 10 11 6 0 10 -2 10 -4z m796 -8 c3 -4 -1
-5 -10 -4 -8 1 -18 5 -22 8 -3 4 1 5 10 4 8 -1 18 -5 22 -8z m-1000 -20 c4 -7
3 -8 -4 -4 -7 4 -12 2 -12 -3 0 -6 -5 -11 -11 -11 -8 0 -8 5 1 15 15 18 17 18
26 3z m19 -17 c-3 -6 -11 -11 -16 -11 -5 0 -4 6 3 14 14 16 24 13 13 -3z
m-421 1 c3 -5 -1 -9 -9 -9 -8 0 -12 4 -9 9 3 4 7 8 9 8 2 0 6 -4 9 -8z m86 4
c0 -3 -4 -8 -10 -11 -5 -3 -10 -1 -10 4 0 6 5 11 10 11 6 0 10 -2 10 -4z m-44
-42 c1 -9 0 -13 -4 -10 -3 4 -7 14 -8 22 -1 9 0 13 4 10 3 -4 7 -14 8 -22z
m360 -27 c-1 -13 -9 -21 -26 -24 -18 -2 -21 -1 -10 6 8 5 18 7 22 5 10 -6 5
32 -5 42 -4 4 -7 1 -7 -6 0 -7 -2 -11 -5 -8 -3 3 -3 13 1 22 6 15 7 15 19 0 7
-10 12 -26 11 -37z m187 38 c-3 -9 -8 -14 -10 -11 -3 3 -2 9 2 15 9 16 15 13
8 -4z m127 5 c0 -5 -5 -10 -11 -10 -5 0 -7 5 -4 10 3 6 8 10 11 10 2 0 4 -4 4
-10z m395 -10 c3 -6 -1 -7 -9 -4 -18 7 -21 14 -7 14 6 0 13 -4 16 -10z m-465
-37 c0 -19 18 -16 23 5 4 15 5 15 6 0 2 -27 -21 -34 -37 -10 -8 12 -21 22 -28
22 -8 0 -14 4 -14 10 0 6 10 5 25 -2 14 -6 25 -17 25 -25z m83 17 c-3 -12 -8
-19 -11 -16 -5 6 5 36 12 36 2 0 2 -9 -1 -20z m261 8 c-3 -4 -9 -8 -15 -8 -5
0 -9 4 -9 8 0 5 7 9 15 9 8 0 12 -4 9 -9z m-1008 -24 c1 -9 0 -13 -4 -10 -3 4
-7 14 -8 22 -1 9 0 13 4 10 3 -4 7 -14 8 -22z m204 22 c0 -2 -8 -10 -17 -17
-16 -13 -17 -12 -4 4 13 16 21 21 21 13z m517 -16 c1 -11 -2 -20 -5 -20 -4 0
-8 9 -9 20 -1 11 2 20 5 20 4 0 8 -9 9 -20z m-447 6 c0 -2 -8 -10 -17 -17 -16
-13 -17 -12 -4 4 13 16 21 21 21 13z m45 -6 c4 -6 -1 -7 -11 -3 -13 5 -15 3
-9 -7 5 -9 4 -11 -4 -6 -6 4 -9 12 -6 17 8 12 22 12 30 -1z m54 1 c10 -7 7 -9
-12 -8 -14 1 -23 5 -20 10 6 9 15 9 32 -2z m-314 -21 c3 -5 1 -10 -4 -10 -6 0
-11 5 -11 10 0 6 2 10 4 10 3 0 8 -4 11 -10z m45 0 c0 -5 -5 -10 -11 -10 -5 0
-7 5 -4 10 3 6 8 10 11 10 2 0 4 -4 4 -10z m40 -4 c0 -2 -8 -10 -17 -17 -16
-13 -17 -12 -4 4 13 16 21 21 21 13z m80 -15 c0 -6 -4 -12 -8 -15 -5 -3 -9 1
-9 9 0 8 4 15 9 15 4 0 8 -4 8 -9z m226 -6 c4 -8 10 -13 14 -10 5 3 11 1 14
-4 4 -5 0 -8 -8 -7 -17 2 -51 36 -36 36 6 0 13 -7 16 -15z m247 -5 c-10 -11
-19 -20 -21 -20 -1 0 2 9 8 20 6 11 15 20 20 20 6 0 2 -9 -7 -20z m871 12 c3
-5 -1 -9 -9 -9 -8 0 -12 4 -9 9 3 4 7 8 9 8 2 0 6 -4 9 -8z m-1149 -11 c3 -5
0 -13 -6 -17 -7 -4 -9 -3 -5 4 3 6 -2 13 -11 15 -16 4 -16 5 -1 6 9 0 19 -3
23 -8z m-360 -11 c3 -5 1 -10 -4 -10 -6 0 -11 5 -11 10 0 6 2 10 4 10 3 0 8
-4 11 -10z m235 5 c0 -1 -10 -10 -22 -21 -14 -12 -18 -13 -10 -3 6 9 10 18 7
21 -3 2 2 5 10 5 8 0 15 -1 15 -2z m86 -7 c5 -7 3 -8 -6 -3 -9 5 -10 1 -6 -16
6 -20 5 -21 -4 -6 -6 9 -8 22 -5 27 8 13 12 13 21 -2z m334 -18 c-8 -5 -17 -6
-20 -3 -3 3 1 8 8 10 6 3 9 10 6 16 -4 7 -1 7 7 -1 12 -11 12 -14 -1 -22z
m-592 -5 c-3 -3 -9 2 -12 12 -6 14 -5 15 5 6 7 -7 10 -15 7 -18z m59 10 c0 -8
-4 -15 -9 -15 -10 0 -11 14 -1 23 9 10 10 9 10 -8z m58 -13 c-3 -3 -11 0 -18
7 -9 10 -8 11 6 5 10 -3 15 -9 12 -12z m199 3 c-4 -8 -8 -15 -10 -15 -2 0 -4
7 -4 15 0 8 4 15 10 15 5 0 7 -7 4 -15z m-31 -8 c3 -8 -1 -14 -9 -14 -15 0
-18 9 -7 20 9 9 10 9 16 -6z m-143 -11 c0 -2 -8 -10 -17 -17 -16 -13 -17 -12
-4 4 13 16 21 21 21 13z m-120 -12 c0 -8 -19 -13 -24 -6 -3 5 1 9 9 9 8 0 15
-2 15 -3z m55 -4 c3 -5 1 -10 -4 -10 -6 0 -11 5 -11 10 0 6 2 10 4 10 3 0 8
-4 11 -10z m180 0 c3 -5 1 -10 -4 -10 -6 0 -11 5 -11 10 0 6 2 10 4 10 3 0 8
-4 11 -10z"/>
<path d="M5844 1574 c1 -7 5 -16 9 -20 9 -9 -12 -46 -23 -39 -5 3 -12 1 -15
-5 -4 -6 -3 -10 2 -9 4 1 11 0 16 -1 4 -1 12 -4 17 -5 6 -1 13 -4 18 -5 4 -2
21 -3 37 -4 21 -1 29 -5 27 -16 -2 -8 0 -11 5 -7 4 5 8 12 8 16 0 4 8 15 18
25 20 21 21 30 5 44 -13 10 -18 12 -39 12 -5 0 -8 4 -5 8 2 4 -4 9 -15 9 -10
1 -19 -2 -19 -8 0 -5 -4 -9 -10 -9 -5 0 -9 5 -7 11 1 6 -5 13 -14 14 -10 2
-16 -3 -15 -11z m21 -3 c-6 -10 11 -24 33 -27 9 -2 11 4 8 14 -6 15 -5 16 6 1
7 -9 21 -15 30 -13 29 4 32 -16 7 -40 -13 -12 -17 -14 -10 -3 16 20 -1 24 -18
4 -9 -11 -41 -15 -61 -7 -3 1 -9 2 -13 1 -4 -1 0 10 8 23 11 16 13 26 5 31
-10 6 -5 25 6 25 3 0 3 -4 -1 -9z"/>
<path d="M5867 1526 c-7 -18 8 -32 18 -16 9 15 28 12 19 -2 -4 -7 2 -4 14 6
12 11 22 20 22 21 0 0 -11 1 -25 1 -14 0 -25 -5 -25 -10 0 -6 -4 -5 -9 2 -7
11 -9 11 -14 -2z"/>
<path d="M5675 1530 c3 -5 8 -10 11 -10 2 0 4 5 4 10 0 6 -5 10 -11 10 -5 0
-7 -4 -4 -10z"/>
<path d="M5989 1528 c-2 -26 -7 -54 -13 -73 -4 -11 0 -8 8 7 11 19 21 25 33
21 11 -5 14 -3 8 6 -6 10 -3 11 14 2 23 -13 27 -26 11 -36 -6 -4 -8 -11 -5
-16 9 -14 21 -11 23 6 1 8 3 22 4 30 1 8 5 12 10 9 4 -3 3 -14 -2 -25 -8 -15
-7 -19 3 -19 13 0 15 13 8 53 0 5 -9 7 -18 4 -23 -5 -75 21 -68 33 4 6 1 10
-4 10 -6 0 -11 -6 -12 -12z"/>
<path d="M6011 1464 c5 -6 6 -14 2 -17 -3 -4 -2 -7 3 -7 11 0 34 21 34 31 0 4
-11 6 -24 5 -16 -1 -21 -5 -15 -12z"/>
<path d="M6020 1430 c-15 -9 -13 -11 13 -14 6 0 12 -10 12 -20 0 -27 17 -30
43 -8 20 17 20 21 7 32 -12 10 -19 10 -27 2 -8 -8 -14 -8 -22 3 -8 10 -16 12
-26 5z m58 -30 c-7 -10 -14 -17 -17 -15 -4 4 18 35 25 35 2 0 -1 -9 -8 -20z"/>
<path d="M5630 1410 c0 -5 5 -10 11 -10 5 0 7 5 4 10 -3 6 -8 10 -11 10 -2 0
-4 -4 -4 -10z"/>
<path d="M5556 1352 c-2 -4 -1 -14 3 -21 6 -10 10 -9 14 3 6 16 -8 32 -17 18z"/>
<path d="M5059 1418 c12 -16 9 -22 -9 -20 -3 0 -7 -9 -7 -20 -1 -11 -1 -19 0
-17 1 2 10 13 20 25 17 20 17 22 0 35 -16 13 -17 12 -4 -3z"/>
<path d="M4992 1385 c4 -4 3 -14 -4 -22 -8 -11 -7 -12 6 -7 19 7 21 20 4 30
-7 4 -10 4 -6 -1z"/>
<path d="M4889 1144 c-13 -14 -22 -29 -21 -32 2 -4 8 -14 13 -24 6 -11 4 -18
-8 -22 -12 -5 -13 -10 -5 -18 8 -8 15 -8 26 1 9 7 15 16 14 19 -2 19 3 33 11
28 5 -3 14 0 20 8 8 10 6 17 -9 31 -11 10 -17 22 -14 26 10 17 -3 9 -27 -17z
m45 -35 c-3 -5 -9 -7 -14 -4 -5 3 -13 -3 -19 -12 -6 -11 -11 -13 -12 -5 -1 6
-2 18 -3 25 -1 6 2 18 7 25 8 10 14 9 28 -4 10 -9 16 -21 13 -25z m-39 -49
c-3 -5 -12 -10 -18 -10 -7 0 -6 4 3 10 19 12 23 12 15 0z"/>
<path d="M4899 1138 c-8 -27 -6 -38 5 -29 7 6 17 7 22 3 4 -4 2 1 -5 11 -12
16 -20 21 -22 15z"/>
<path d="M5507 1166 c-6 -16 1 -26 17 -26 6 0 4 5 -4 10 -10 6 -11 10 -2 10 6
0 12 5 12 10 0 15 -17 12 -23 -4z"/>
<path d="M5446 1043 c-6 -14 -5 -15 5 -6 7 7 10 15 7 18 -3 3 -9 -2 -12 -12z"/>
<path d="M5335 1020 c-10 -11 -15 -20 -10 -20 4 0 -4 -15 -19 -34 -25 -34 -25
-35 -5 -31 12 3 24 7 27 10 3 2 10 0 17 -5 8 -7 12 -5 12 5 0 8 -4 12 -8 9 -4
-2 -10 0 -13 5 -4 5 -2 12 3 16 5 3 8 14 6 25 -2 11 4 24 13 30 9 5 12 10 6
10 -6 0 -19 -9 -29 -20z m-5 -64 c0 -2 -7 -7 -16 -10 -8 -3 -12 -2 -9 4 6 10
25 14 25 6z"/>
<path d="M5413 993 c7 -12 -26 -46 -36 -38 -4 3 -5 2 -2 -2 3 -4 13 -8 21 -9
9 -1 13 0 10 3 -3 4 1 14 10 24 12 13 12 19 3 25 -7 4 -10 3 -6 -3z"/>
<path d="M4859 1173 c-13 -16 -12 -17 4 -4 16 13 21 21 13 21 -2 0 -10 -8 -17
-17z"/>
<path d="M5470 1132 c0 -6 -8 -9 -18 -7 -14 2 -18 -2 -17 -18 1 -12 6 -20 11
-17 5 3 7 11 6 19 -2 7 1 10 7 7 11 -7 26 12 17 21 -3 4 -6 1 -6 -5z"/>
<path d="M4800 1019 c0 -5 5 -7 10 -4 6 3 10 8 10 11 0 2 -4 4 -10 4 -5 0 -10
-5 -10 -11z"/>
<path d="M7423 9269 c-15 -15 -168 -791 -160 -812 6 -15 27 -17 220 -17 245 0
238 -3 245 86 l4 54 -139 0 -140 0 68 338 c47 238 64 341 57 350 -13 15 -140
16 -155 1z"/>
<path d="M5672 9054 c-125 -62 -209 -242 -200 -429 6 -140 52 -196 165 -203
53 -4 72 0 118 22 30 15 65 40 79 57 l25 29 -2 -42 -2 -43 61 -3 c41 -2 64 1
71 10 15 18 127 574 119 593 -4 11 -21 15 -64 15 -61 0 -82 -11 -82 -44 0 -18
-2 -18 -27 6 -70 65 -170 78 -261 32z m188 -134 c11 -6 27 -21 35 -34 14 -22
14 -30 1 -90 -28 -118 -87 -202 -161 -226 -45 -15 -80 4 -90 51 -15 67 21 215
65 267 39 47 98 60 150 32z"/>
<path d="M6412 9059 c-137 -53 -233 -221 -233 -412 0 -122 44 -189 142 -217
49 -14 185 -12 254 4 67 16 89 37 100 92 10 54 -3 60 -77 39 -35 -10 -93 -18
-131 -19 -59 0 -70 3 -92 24 -24 25 -38 81 -28 118 4 17 15 20 84 21 232 4
348 80 337 219 -4 49 -10 60 -45 93 -22 20 -58 42 -79 48 -63 17 -172 13 -232
-10z m155 -107 c7 -1 20 -13 28 -26 12 -18 13 -30 5 -50 -13 -36 -63 -55 -156
-63 l-75 -5 13 28 c40 95 92 127 185 116z"/>
<path d="M8022 9054 c-124 -62 -209 -243 -200 -429 6 -140 52 -196 165 -203
53 -4 72 0 118 22 30 15 65 40 79 57 l25 29 -2 -42 -2 -43 61 -3 c41 -2 64 1
71 10 15 18 126 575 119 593 -4 11 -22 15 -66 15 -58 0 -62 -1 -74 -30 l-12
-31 -20 22 c-58 64 -172 78 -262 33z m173 -128 c18 -8 41 -25 50 -39 15 -23
15 -31 1 -91 -28 -117 -80 -195 -151 -222 -41 -15 -47 -15 -69 -1 -30 20 -40
63 -31 135 13 107 55 187 112 217 35 18 45 19 88 1z"/>
<path d="M5085 7012 c-37 -23 -84 -76 -109 -123 l-19 -36 -39 39 c-48 48 -70
57 -120 48 -43 -8 -97 -60 -98 -95 0 -11 -7 -29 -15 -39 -8 -11 -15 -28 -15
-38 0 -10 -7 -30 -16 -43 -9 -14 -14 -36 -12 -50 3 -15 0 -26 -10 -30 -8 -3
-16 -4 -17 -3 -1 2 -27 35 -58 75 -110 140 -191 115 -219 -65 -5 -37 -14 -76
-20 -88 -5 -11 -8 -34 -6 -50 2 -22 -5 -36 -27 -58 l-29 -29 -8 31 c-5 17 -17
33 -28 37 -11 4 -20 12 -20 18 0 20 -57 77 -78 77 -37 0 -71 -67 -42 -85 5 -3
7 -19 3 -35 -7 -39 12 -63 46 -57 14 3 34 -1 44 -8 11 -8 25 -11 32 -8 10 3
16 -7 21 -33 5 -28 3 -39 -6 -42 -8 -3 -23 -15 -35 -28 -12 -13 -31 -24 -42
-24 -11 0 -28 -9 -38 -20 -10 -11 -30 -20 -45 -20 -14 0 -31 -5 -37 -11 -8 -8
-13 -8 -17 0 -4 6 -18 11 -32 11 -27 0 -104 44 -104 60 0 19 -40 50 -63 50
-27 0 -57 -28 -57 -54 0 -29 39 -94 60 -101 17 -5 19 -10 9 -21 -17 -20 -2
-63 26 -76 19 -9 29 -7 50 6 14 9 25 21 25 26 0 6 8 5 20 -2 15 -9 27 -10 49
-2 17 7 35 8 42 3 23 -14 55 -10 73 10 9 10 28 19 42 19 13 0 34 8 45 18 11
10 35 23 52 29 19 6 38 22 47 40 27 53 97 89 140 73 18 -7 31 -4 52 12 15 11
36 20 48 20 25 0 60 34 60 59 0 26 34 32 83 15 105 -38 182 -19 263 63 30 30
54 59 54 64 0 16 18 9 47 -17 44 -41 84 -57 140 -58 42 -1 59 5 93 29 23 17
49 44 59 60 9 17 20 33 25 37 5 3 28 -20 51 -51 53 -72 98 -101 157 -101 63 0
102 30 157 122 25 42 49 79 53 83 4 4 19 -17 34 -47 14 -29 31 -56 36 -59 5
-3 9 -9 8 -13 -4 -14 23 -66 31 -60 5 3 6 -1 3 -9 -8 -21 45 -80 68 -74 11 3
16 1 11 -6 -4 -7 0 -8 11 -4 10 4 22 7 27 7 6 0 8 4 5 9 -3 5 2 8 11 7 10 -1
29 23 53 66 20 37 45 77 55 88 l19 21 18 -33 c27 -51 68 -185 68 -224 0 -48
37 -84 85 -84 52 0 74 15 95 66 25 57 69 85 130 82 43 -3 45 -4 60 -49 33 -90
33 -110 3 -141 -21 -22 -28 -39 -28 -68 0 -86 92 -116 158 -52 30 29 39 32 78
28 114 -12 132 -28 113 -104 -7 -29 -15 -37 -40 -44 -17 -4 -43 -20 -58 -34
-32 -33 -35 -90 -7 -125 17 -21 30 -24 117 -30 76 -5 118 -14 179 -38 110 -43
113 -45 92 -69 -10 -11 -45 -34 -79 -52 -81 -44 -98 -62 -98 -108 0 -51 26
-74 131 -116 46 -19 101 -41 122 -50 l39 -17 -59 -35 c-96 -58 -123 -93 -123
-158 0 -67 61 -133 185 -201 28 -15 54 -29 58 -32 4 -3 -18 -23 -49 -45 -31
-22 -65 -49 -75 -61 -26 -32 -39 -96 -29 -140 9 -42 52 -110 86 -136 21 -16
21 -16 -23 -55 -100 -88 -123 -215 -59 -332 l35 -62 -46 -47 c-66 -69 -96
-141 -95 -229 l0 -71 -53 -55 c-28 -30 -62 -72 -74 -93 -27 -45 -51 -128 -51
-179 0 -21 -4 -38 -10 -38 -17 0 -90 -82 -141 -157 -21 -31 -60 -68 -101 -96
-73 -50 -135 -113 -178 -179 -21 -34 -38 -47 -79 -61 -47 -16 -51 -20 -39 -35
12 -15 11 -16 -4 -4 -14 11 -23 9 -57 -14 -23 -15 -38 -31 -34 -38 3 -6 3 -8
-2 -4 -11 10 -47 -11 -40 -23 4 -5 0 -9 -8 -9 -14 0 -32 -26 -29 -42 1 -4 -12
-2 -29 4 -43 15 -127 1 -195 -32 -57 -27 -154 -110 -187 -159 -13 -19 -19 -22
-30 -13 -8 7 -17 9 -21 5 -4 -4 -10 -2 -14 4 -4 7 -19 14 -32 17 -14 3 -36 8
-50 11 -32 7 -100 -4 -100 -16 0 -6 4 -7 10 -4 5 3 7 0 4 -9 -4 -11 0 -13 18
-10 21 4 21 4 3 -5 -15 -7 -24 -4 -36 12 -16 19 -19 20 -40 5 -34 -22 -105
-87 -96 -88 4 0 -5 -13 -22 -29 -18 -18 -26 -33 -21 -41 6 -9 10 -6 15 9 5 18
9 20 21 10 8 -6 17 -9 21 -5 4 3 -2 13 -13 22 -18 14 -18 14 5 3 21 -10 27 -9
39 7 10 13 13 14 9 4 -2 -9 1 -24 9 -35 17 -23 18 -35 2 -35 -6 0 -8 3 -5 6 3
4 2 15 -4 26 -10 18 -12 18 -28 4 -10 -9 -25 -14 -35 -10 -16 6 -23 -10 -8
-19 4 -2 1 -2 -6 0 -8 1 -12 -3 -9 -9 6 -18 38 -10 59 14 10 12 18 17 18 11 0
-16 -39 -46 -62 -48 -12 -1 -23 -6 -25 -12 -6 -16 30 -11 58 8 21 14 69 23 69
12 0 -1 -12 -14 -27 -28 -20 -18 -23 -25 -12 -25 8 0 25 18 37 39 12 21 29 41
37 45 8 3 15 10 15 16 0 6 -4 8 -10 5 -5 -3 -10 -1 -10 5 0 7 7 9 16 6 10 -4
26 1 37 11 11 10 17 12 13 6 -9 -16 24 -5 39 13 7 8 16 9 30 3 18 -9 18 -9 -3
-5 -15 3 -22 0 -19 -7 2 -7 8 -12 13 -12 5 -1 19 -6 32 -13 15 -9 22 -9 22 -2
0 6 5 8 10 5 6 -4 4 -12 -5 -21 -8 -9 -18 -27 -21 -42 -4 -15 -11 -32 -15 -38
-5 -6 -20 -41 -34 -79 -14 -37 -32 -79 -39 -93 l-13 -24 -34 43 c-19 24 -37
46 -41 47 -5 2 -8 9 -8 16 0 11 -54 76 -64 76 -3 0 -3 -14 -1 -30 3 -28 1 -30
-18 -25 -21 6 -22 6 -3 -9 19 -15 12 -22 -16 -17 -14 2 -8 -18 8 -27 15 -8 15
-10 0 -15 -10 -4 -14 -3 -11 2 3 5 1 12 -5 16 -5 3 -10 1 -10 -4 0 -6 -5 -11
-11 -11 -5 0 -7 5 -3 12 4 7 3 8 -4 4 -6 -4 -9 -13 -6 -21 4 -8 10 -13 14 -10
5 3 12 0 16 -6 4 -7 3 -9 -4 -5 -6 3 -13 2 -17 -4 -3 -5 -1 -10 5 -10 6 0 8
-10 5 -23 -5 -18 7 -38 52 -92 33 -39 62 -69 66 -67 4 1 16 -7 27 -18 15 -15
33 -20 75 -20 49 0 59 4 95 37 24 21 39 42 36 50 -3 8 -1 11 4 8 6 -4 19 15
30 41 16 37 18 50 8 63 -10 13 -10 14 2 4 11 -11 19 0 43 63 l29 77 23 -29
c12 -16 38 -49 56 -74 19 -25 51 -53 71 -63 34 -17 39 -17 68 -2 18 9 28 21
24 27 -4 7 -3 8 5 4 15 -10 54 81 48 112 -2 12 -2 20 1 17 9 -8 42 136 35 148
-4 6 -1 7 7 2 10 -6 12 0 8 23 -2 17 -1 29 3 27 10 -7 20 25 12 37 -3 6 -1 8
4 5 6 -4 13 3 16 14 6 21 7 21 47 -11 22 -18 55 -50 73 -73 69 -86 83 -97 127
-97 30 0 47 6 65 25 24 23 25 29 24 147 -1 151 24 278 55 278 33 -1 106 -47
147 -92 37 -42 51 -51 79 -51 71 0 91 76 40 153 -16 25 -30 51 -30 58 0 6 -3
12 -7 12 -10 0 -10 151 0 166 3 6 33 17 66 24 78 16 159 6 202 -26 74 -54 169
-16 169 68 0 41 -26 75 -95 122 -27 19 -80 120 -70 136 11 17 153 42 251 44
107 1 128 9 145 53 13 35 -6 70 -58 106 -26 17 -69 52 -96 76 -38 36 -45 47
-35 57 17 16 146 62 228 80 131 30 170 63 170 144 0 49 -27 82 -120 144 -39
27 -70 49 -68 51 2 2 45 20 97 41 60 24 107 50 132 74 34 32 39 43 39 81 0 58
-32 105 -110 160 -33 23 -60 45 -60 49 0 4 14 13 31 21 46 18 127 85 150 122
25 43 25 125 0 176 -11 21 -45 61 -75 88 l-55 50 24 36 c46 67 50 150 10 227
-10 19 -46 62 -81 95 l-62 60 15 29 c25 48 14 171 -22 232 -35 59 -92 122
-155 170 -37 29 -49 44 -54 73 -7 48 -71 152 -127 208 -24 24 -73 64 -109 89
-54 37 -71 55 -100 112 -65 127 -230 265 -366 307 -35 11 -69 34 -119 81 -88
84 -175 127 -265 132 -64 4 -66 5 -132 68 -116 112 -248 150 -354 105 l-51
-22 -33 31 c-18 17 -35 28 -38 26 -2 -3 -11 2 -19 10 -9 8 -22 13 -30 10 -8
-3 -11 -1 -8 4 3 6 -2 11 -12 11 -10 1 -35 3 -56 4 -20 1 -40 -1 -42 -6 -3 -4
-13 -5 -22 -2 -11 4 -14 3 -9 -5 4 -8 2 -10 -7 -6 -8 3 -21 -2 -30 -10 -9 -9
-20 -16 -25 -16 -4 0 -19 -11 -32 -25 l-23 -25 -53 50 c-29 28 -65 55 -79 60
-43 16 -127 12 -160 -8z m505 -25 c0 -2 -10 -12 -22 -23 l-23 -19 19 23 c18
21 26 27 26 19z m20 -17 c0 -5 -5 -10 -11 -10 -5 0 -7 5 -4 10 3 6 8 10 11 10
2 0 4 -4 4 -10z m-180 -60 c0 -5 -2 -10 -4 -10 -3 0 -8 5 -11 10 -3 6 -1 10 4
10 6 0 11 -4 11 -10z m199 -13 c8 -10 7 -14 -2 -14 -8 0 -14 6 -14 14 0 7 1
13 2 13 2 0 8 -6 14 -13z m-79 -3 c0 -8 -19 -13 -24 -6 -3 5 1 9 9 9 8 0 15
-2 15 -3z m180 -4 c0 -5 -2 -10 -4 -10 -3 0 -8 5 -11 10 -3 6 -1 10 4 10 6 0
11 -4 11 -10z m-304 -25 c-1 -8 -5 -17 -8 -21 -5 -4 -4 16 1 34 3 9 9 -1 7
-13z m176 -8 c9 -1 15 -4 12 -8 -2 -4 5 -10 16 -14 25 -8 25 -22 -1 -60 -11
-16 -31 -52 -45 -78 -14 -26 -29 -45 -34 -42 -10 6 -69 106 -87 147 -8 20 -9
29 -1 34 6 4 8 3 5 -2 -3 -6 -3 -15 1 -21 5 -7 18 -2 39 17 17 16 29 30 27 33
-3 2 8 2 23 0 15 -3 36 -5 45 -6z m88 9 c0 -2 -8 -10 -17 -17 -16 -13 -17 -12
-4 4 13 16 21 21 21 13z m-458 -74 l44 -49 -35 -55 c-20 -30 -43 -62 -51 -70
-18 -17 -28 -11 -84 50 l-29 31 43 71 c23 38 48 70 55 70 6 0 32 -22 57 -48z
m455 23 c0 -8 -4 -12 -9 -9 -5 3 -6 10 -3 15 9 13 12 11 12 -6z m138 -24 c-9
-8 -36 -10 -30 -2 2 4 11 8 20 8 8 0 13 -3 10 -6z m-968 -37 c18 -20 33 -43
33 -51 0 -22 -67 -119 -96 -138 -38 -25 -67 -16 -75 22 -5 27 -2 34 22 52 19
14 29 31 29 47 0 14 7 32 15 40 8 9 15 26 15 40 0 34 18 30 57 -12z m1129 -17
c16 -8 36 -23 46 -33 15 -18 14 -22 -23 -63 -22 -24 -41 -42 -43 -40 -17 21
-76 150 -72 158 7 11 47 2 92 -22z m-162 15 c2 -4 -5 -9 -17 -9 -17 -2 -19 0
-7 7 18 12 18 12 24 2z m39 -27 c4 -8 3 -16 -1 -19 -4 -3 -9 4 -9 15 -2 23 3
25 10 4z m-37 -111 c1 -9 0 -13 -4 -10 -3 4 -7 14 -8 22 -1 9 0 13 4 10 3 -4
7 -14 8 -22z m591 -50 c9 -9 6 -14 -13 -23 -33 -15 -31 -16 -54 29 l-20 40 37
-18 c21 -9 43 -22 50 -28z m-1913 -12 c37 -45 48 -92 21 -92 -8 0 -23 -8 -33
-18 -11 -11 -33 -22 -49 -25 -27 -5 -31 -3 -36 20 -3 17 2 32 14 44 11 11 19
30 19 44 0 22 20 79 26 73 1 -2 18 -23 38 -46z m2291 -282 c18 -19 17 -20 -3
-20 -15 0 -22 6 -22 20 0 11 2 20 3 20 2 0 12 -9 22 -20z m354 -334 l33 -35
-41 11 c-30 8 -41 15 -37 25 4 8 6 19 6 24 0 14 4 12 39 -25z m293 -467 c6
-22 8 -42 5 -45 -7 -7 -177 65 -177 75 0 3 19 25 43 49 l42 43 37 -42 c21 -23
43 -59 50 -80z m98 -292 c43 -39 90 -97 90 -112 0 -8 -13 -29 -28 -46 l-29
-32 -39 26 c-21 15 -42 27 -46 27 -3 0 -34 16 -67 36 l-61 36 58 35 c31 19 61
39 67 44 14 14 28 11 55 -14z m71 -433 c32 -25 59 -51 59 -58 0 -11 -107 -78
-172 -107 -24 -10 -30 -9 -60 16 -18 15 -41 40 -50 55 -17 26 -17 27 5 47 25
24 138 93 150 93 5 0 35 -21 68 -46z m21 -506 c-212 -99 -205 -98 -237 -28
-16 36 -17 43 -4 67 8 14 36 41 63 59 l49 33 83 -57 83 -57 -37 -17z m-199
-332 l48 -34 -32 -7 c-18 -4 -65 -20 -103 -36 -39 -16 -72 -29 -73 -29 -1 0 3
14 9 31 11 32 78 109 94 109 5 0 31 -15 57 -34z m-219 -442 c-27 -7 -50 -13
-51 -14 -11 -1 2 24 24 50 l27 33 24 -29 24 -28 -48 -12z m-799 -826 c-9 -42
-9 -42 -34 -26 -20 12 -20 13 7 35 35 29 35 29 27 -9z m-762 -135 c-7 -2 -19
-2 -25 0 -7 3 -2 5 12 5 14 0 19 -2 13 -5z m37 -7 c0 -3 -4 -8 -10 -11 -5 -3
-10 -1 -10 4 0 6 5 11 10 11 6 0 10 -2 10 -4z m-145 -25 c-3 -6 -10 -9 -15 -6
-5 3 -13 -2 -18 -12 -8 -13 -6 -21 6 -31 15 -11 14 -12 -6 -2 -22 11 -22 13
-9 33 9 12 20 21 26 20 6 -2 11 2 11 9 0 6 3 9 6 5 3 -3 3 -11 -1 -16z m119
-13 c-5 -7 -2 -9 8 -6 8 4 21 2 29 -3 10 -6 6 -8 -13 -6 -15 1 -26 5 -25 9 1
4 -7 14 -18 23 -19 16 -19 16 3 5 13 -6 20 -16 16 -22z m444 15 c-2 -10 -7
-21 -11 -24 -5 -4 -10 -18 -10 -33 -1 -14 -5 -26 -8 -26 -4 0 -12 -20 -18 -44
-6 -24 -14 -51 -18 -61 -4 -13 -3 -16 6 -11 9 6 9 3 -1 -13 -15 -25 -40 -37
-31 -15 3 9 -1 14 -13 14 -9 0 -14 3 -11 6 10 10 -13 45 -24 39 -5 -4 -9 -3
-8 2 1 4 -1 16 -6 26 -10 24 34 89 87 127 46 34 70 38 66 13z m-368 -25 c0 -5
-11 -1 -25 8 -14 9 -25 18 -25 20 0 2 11 -2 25 -8 14 -6 25 -15 25 -20z m32
-1 c-7 -8 -9 -17 -5 -20 3 -4 1 -7 -5 -7 -7 0 -12 2 -12 5 0 10 24 44 29 40 2
-3 -1 -11 -7 -18z m-198 4 c3 -5 -1 -14 -10 -22 -12 -10 -18 -9 -32 6 -9 10
-12 15 -5 11 6 -3 14 -2 18 4 8 12 22 13 29 1z m56 -4 c0 -8 -3 -16 -6 -20 -8
-8 -34 3 -34 15 0 6 8 4 17 -3 15 -12 16 -12 10 4 -3 9 -2 17 3 17 6 0 10 -6
10 -13z m190 3 c8 -5 11 -10 5 -10 -5 0 -17 5 -25 10 -8 5 -10 10 -5 10 6 0
17 -5 25 -10z m-174 -36 c-3 -15 -8 -29 -11 -32 -3 -3 -3 5 -1 19 2 13 5 27 5
32 1 4 3 7 6 7 3 0 3 -12 1 -26z m-169 -18 c-21 -21 -33 -20 -16 1 12 15 12
16 -6 10 -20 -7 -20 -7 -1 8 26 20 45 3 23 -19z m234 11 c-10 -9 -11 -8 -5 6
3 10 9 15 12 12 3 -3 0 -11 -7 -18z m98 16 c-3 -21 2 -33 13 -27 7 5 8 3 4 -5
-6 -9 -12 -8 -26 6 -12 12 -14 20 -6 25 14 10 16 10 15 1z m-229 -13 c-8 -5
-19 -10 -25 -10 -5 0 -3 5 5 10 8 5 20 10 25 10 6 0 3 -5 -5 -10z m105 0 c3
-6 -1 -7 -9 -4 -18 7 -21 14 -7 14 6 0 13 -4 16 -10z m180 -1 c11 -16 1 -19
-13 -3 -7 8 -8 14 -3 14 5 0 13 -5 16 -11z m-261 -14 c-10 -8 -23 -14 -29 -14
-5 0 -1 6 9 14 11 8 24 15 30 15 5 0 1 -7 -10 -15z m-71 -2 c-7 -2 -19 -2 -25
0 -7 3 -2 5 12 5 14 0 19 -2 13 -5z m183 -21 c-17 -16 -18 -16 -5 5 7 12 15
20 18 17 3 -2 -3 -12 -13 -22z m125 1 c-12 -20 -14 -14 -5 12 4 9 9 14 11 11
3 -2 0 -13 -6 -23z m-81 -8 c14 -19 14 -19 -2 -6 -10 7 -18 18 -18 24 0 6 1 8
3 6 1 -2 9 -13 17 -24z m-230 5 c5 8 10 10 10 5 0 -6 -5 -16 -12 -23 -9 -9 -9
-12 1 -12 7 0 9 -5 5 -11 -4 -8 -12 -3 -20 12 -15 28 -18 51 -4 29 9 -13 11
-13 20 0z m286 -17 c-6 -6 -36 9 -36 18 0 5 9 4 20 -3 10 -7 18 -14 16 -15z
m63 13 c9 -10 8 -15 -3 -19 -11 -4 -13 -1 -9 10 5 12 3 14 -7 8 -9 -5 -11 -4
-6 3 9 15 11 15 25 -2z m49 -26 c-7 -10 -14 -17 -17 -15 -4 4 18 35 25 35 2 0
-1 -9 -8 -20z m-76 -27 c-6 -2 -10 -9 -7 -13 3 -5 1 -11 -4 -14 -7 -5 -8 11
-2 32 1 1 7 2 14 1 9 0 9 -2 -1 -6z m258 -8 c0 -2 -9 -3 -19 -2 -11 0 -18 5
-15 9 4 6 34 0 34 -7z m-225 -14 c3 -5 2 -12 -3 -15 -5 -3 -9 1 -9 9 0 17 3
19 12 6z m45 -31 c-6 -11 -5 -22 3 -31 7 -7 2 -5 -9 4 -17 14 -23 15 -27 5 -3
-7 -4 -3 -4 9 1 18 4 20 16 10 12 -10 14 -9 9 4 -4 9 -1 16 7 16 10 0 11 -5 5
-17z m45 10 c3 -6 -1 -7 -9 -4 -18 7 -21 14 -7 14 6 0 13 -4 16 -10z m5 -34
c0 -2 -8 -10 -17 -17 -16 -13 -17 -12 -4 4 13 16 21 21 21 13z m90 -6 c0 -5
-2 -10 -4 -10 -3 0 -8 5 -11 10 -3 6 -1 10 4 10 6 0 11 -4 11 -10z m-140 -34
c0 -2 -7 -7 -16 -10 -8 -3 -12 -2 -9 4 6 10 25 14 25 6z m39 -30 c-3 -3 -11 5
-18 17 -13 21 -12 21 5 5 10 -10 16 -20 13 -22z m181 24 c0 -5 -2 -10 -4 -10
-3 0 -8 5 -11 10 -3 6 -1 10 4 10 6 0 11 -4 11 -10z m-209 -27 c13 -16 12 -17
-3 -4 -10 7 -18 15 -18 17 0 8 8 3 21 -13z m153 -11 c3 -5 -1 -9 -9 -9 -8 0
-15 4 -15 9 0 4 4 8 9 8 6 0 12 -4 15 -8z m-44 -18 c0 -8 -19 -13 -24 -6 -3 5
1 9 9 9 8 0 15 -2 15 -3z m-3 -79 c0 -8 -4 -15 -9 -15 -10 0 -11 14 -1 23 9
10 10 9 10 -8z m-397 -39 c0 -3 -4 -8 -10 -11 -5 -3 -10 -1 -10 4 0 6 5 11 10
11 6 0 10 -2 10 -4z"/>
<path d="M5545 2440 c-3 -5 -2 -10 4 -10 5 0 13 5 16 10 3 6 2 10 -4 10 -5 0
-13 -4 -16 -10z"/>
<path d="M5116 6358 c-22 -31 -20 -64 4 -88 41 -41 110 -13 110 44 0 41 -26
66 -68 66 -21 0 -36 -7 -46 -22z"/>
<path d="M4082 6348 c-33 -33 6 -91 47 -69 27 15 32 35 15 60 -17 23 -44 27
-62 9z"/>
<path d="M5346 6328 c-16 -22 -10 -44 16 -66 20 -16 62 7 66 36 7 49 -53 72
-82 30z"/>
<path d="M5562 6298 c-20 -20 -14 -56 13 -74 24 -16 27 -16 45 1 36 32 20 85
-25 85 -12 0 -26 -5 -33 -12z"/>
<path d="M5772 6228 c-31 -31 5 -92 49 -81 23 6 36 49 22 72 -13 20 -54 26
-71 9z"/>
<path d="M5957 6142 c-37 -41 -6 -112 48 -112 14 0 34 9 45 20 11 11 20 31 20
45 0 55 -77 87 -113 47z"/>
<path d="M3915 6063 c-10 -10 -29 -16 -41 -15 -32 5 -64 -15 -64 -39 0 -16 -4
-19 -20 -14 -43 14 -69 -44 -30 -65 15 -8 24 -6 40 10 17 17 24 18 41 10 25
-14 69 11 69 38 0 13 8 18 26 17 33 0 53 28 38 53 -16 24 -38 26 -59 5z"/>
<path d="M3531 6022 c-15 -27 8 -57 38 -49 17 4 21 2 17 -8 -3 -8 5 -21 16
-30 20 -13 24 -13 40 2 22 20 23 46 2 64 -11 9 -20 10 -32 2 -13 -8 -19 -5
-27 11 -14 28 -41 32 -54 8z"/>
<path d="M6151 6016 c-19 -22 -9 -59 19 -73 23 -12 27 -10 48 13 21 24 21 28
9 48 -17 26 -59 32 -76 12z"/>
<path d="M5170 5969 c-1 -45 -6 -163 -15 -368 -3 -62 -14 -159 -26 -214 -21
-106 -19 -156 7 -178 12 -10 15 -39 13 -171 l-2 -158 -55 -28 c-43 -21 -60
-37 -78 -72 -13 -25 -26 -57 -29 -72 -6 -34 -29 -42 -517 -172 l-136 -37 -42
22 c-59 31 -100 22 -261 -55 -159 -77 -281 -119 -629 -217 -355 -100 -346 -97
-334 -98 17 -1 168 30 398 84 312 72 410 87 659 100 116 6 154 20 197 73 17
22 41 42 53 45 12 2 139 32 282 65 361 85 338 83 381 38 71 -73 156 -81 241
-24 50 35 77 97 70 165 -9 86 -55 141 -139 167 -16 5 -18 22 -18 166 0 149 2
163 21 190 24 32 24 59 -5 215 -8 46 -17 184 -21 325 -4 135 -9 247 -11 249
-2 2 -4 -16 -4 -40z m-30 -1167 c0 -5 -11 -14 -25 -20 -28 -13 -65 -67 -65
-95 0 -67 66 -123 134 -114 107 15 134 157 39 206 -13 7 -23 16 -23 21 0 19
22 10 55 -23 86 -86 31 -227 -89 -227 -121 0 -178 156 -85 234 30 26 59 34 59
18z m63 -53 c72 -33 47 -139 -31 -139 -73 0 -108 75 -57 125 26 27 51 31 88
14z"/>
<path d="M5145 4701 c-8 -15 3 -31 21 -31 9 0 14 7 12 17 -4 20 -24 28 -33 14z"/>
<path d="M3752 5888 c-7 -7 -12 -24 -12 -38 0 -34 17 -50 52 -50 27 0 48 23
48 54 0 37 -61 61 -88 34z"/>
<path d="M6322 5878 c-13 -13 -16 -47 -4 -64 23 -33 82 -12 82 30 0 28 -18 46
-45 46 -12 0 -26 -5 -33 -12z"/>
<path d="M3674 5776 c-3 -8 -15 -11 -30 -8 -54 10 -79 -67 -28 -90 30 -14 54
-3 69 30 5 11 17 23 27 25 22 6 24 43 2 51 -24 9 -34 7 -40 -8z"/>
<path d="M3415 5710 c-15 -17 -16 -24 -7 -45 6 -14 17 -25 23 -25 8 0 8 -4 -1
-14 -16 -21 -9 -56 15 -72 18 -12 24 -11 43 2 23 16 30 58 12 69 -6 4 -8 21
-4 41 11 59 -41 88 -81 44z"/>
<path d="M6462 5718 c-13 -13 -16 -47 -4 -64 23 -33 82 -12 82 30 0 28 -18 46
-45 46 -12 0 -26 -5 -33 -12z"/>
<path d="M3306 5699 c-16 -24 -5 -63 22 -74 22 -8 62 22 62 48 0 47 -56 65
-84 26z"/>
<path d="M6570 5540 c-11 -11 -20 -31 -20 -45 0 -14 9 -34 20 -45 41 -41 110
-10 110 48 0 57 -69 83 -110 42z"/>
<path d="M3493 5503 c-18 -7 -16 -42 3 -50 8 -3 23 1 31 10 13 13 14 19 3 31
-13 17 -17 18 -37 9z"/>
<path d="M6676 5339 c-17 -25 -4 -65 25 -72 42 -11 78 50 47 81 -19 19 -55 14
-72 -9z"/>
<path d="M3417 5204 c-4 -4 -7 -16 -7 -26 0 -14 6 -19 23 -16 14 2 22 10 22
23 0 20 -25 32 -38 19z"/>
<path d="M6752 5148 c-13 -13 -16 -47 -4 -64 23 -33 82 -12 82 30 0 28 -18 46
-45 46 -12 0 -26 -5 -33 -12z"/>
<path d="M3242 5138 c-7 -7 -12 -21 -12 -33 0 -12 5 -26 12 -33 7 -7 21 -12
33 -12 12 0 26 5 33 12 7 7 12 21 12 33 0 12 -5 26 -12 33 -7 7 -21 12 -33 12
-12 0 -26 -5 -33 -12z"/>
<path d="M6792 4938 c-19 -19 -14 -55 9 -71 26 -19 54 -12 67 18 20 44 -41 88
-76 53z"/>
<path d="M3436 4728 c-22 -31 -20 -64 4 -88 41 -41 110 -13 110 44 0 41 -26
66 -68 66 -21 0 -36 -7 -46 -22z"/>
<path d="M6797 4732 c-37 -41 -6 -112 48 -112 32 0 65 33 65 65 0 55 -77 87
-113 47z"/>
<path d="M6792 4508 c-19 -19 -14 -55 9 -71 26 -19 54 -12 67 18 20 44 -41 88
-76 53z"/>
<path d="M6746 4289 c-16 -23 -5 -63 19 -73 21 -8 60 18 63 42 7 49 -53 72
-82 31z"/>
<path d="M6676 4089 c-17 -25 -4 -65 25 -72 42 -11 78 50 47 81 -19 19 -55 14
-72 -9z"/>
<path d="M3666 3911 c-26 -29 -18 -81 16 -100 59 -33 120 28 87 87 -19 35 -76
43 -103 13z"/>
<path d="M6570 3910 c-40 -40 -11 -110 45 -110 31 0 65 33 65 63 0 60 -68 89
-110 47z"/>
<path d="M6456 3719 c-16 -24 -5 -63 22 -74 22 -8 62 22 62 48 0 47 -56 65
-84 26z"/>
<path d="M6316 3559 c-17 -25 -4 -65 25 -72 42 -11 78 50 47 81 -19 19 -55 14
-72 -9z"/>
<path d="M4280 3310 c-11 -11 -20 -31 -20 -45 0 -14 9 -34 20 -45 41 -41 110
-10 110 49 0 55 -70 81 -110 41z"/>
<path d="M5960 3310 c-40 -40 -11 -110 45 -110 32 0 65 33 65 65 0 32 -33 65
-65 65 -14 0 -34 -9 -45 -20z"/>
<path d="M5120 3090 c-40 -40 -11 -110 45 -110 32 0 65 33 65 65 0 32 -33 65
-65 65 -14 0 -34 -9 -45 -20z"/>
<path d="M5097 2456 c-8 -8 -17 -12 -21 -9 -3 4 -6 1 -6 -6 0 -7 -4 -10 -9 -7
-9 6 -92 -83 -94 -101 -1 -4 -11 -18 -22 -31 -11 -13 -20 -27 -20 -30 0 -4 -4
-13 -8 -19 -5 -7 -4 -13 2 -13 5 0 12 6 14 13 4 9 6 9 6 0 1 -7 -8 -17 -20
-23 -16 -9 -25 -8 -40 6 -10 9 -16 21 -12 27 3 6 1 7 -5 3 -8 -5 -12 0 -12 13
0 12 -5 21 -11 21 -6 0 -8 -7 -5 -16 3 -8 2 -13 -3 -10 -11 7 -23 -22 -14 -36
4 -7 1 -8 -6 -3 -10 6 -11 3 -2 -12 11 -21 6 -33 -13 -33 -6 0 -4 5 4 10 9 6
10 10 3 10 -17 0 -26 -19 -15 -33 5 -7 8 -24 5 -38 -2 -15 3 -32 11 -38 8 -7
13 -18 10 -26 -7 -17 12 -29 22 -14 5 8 2 10 -7 5 -8 -4 -6 -1 4 7 18 15 23
28 10 26 -21 -3 -33 2 -27 13 5 7 3 8 -7 2 -10 -6 -9 0 4 19 21 32 23 58 2 31
-11 -13 -14 -14 -13 -4 2 8 11 21 20 28 9 7 15 19 12 27 -7 18 7 20 24 3 9 -9
12 -9 12 3 1 10 3 9 11 -4 8 -13 14 -15 23 -8 9 8 13 7 13 -4 0 -8 -4 -12 -8
-10 -3 3 -13 -3 -20 -13 -13 -16 -13 -16 5 -2 18 13 19 13 11 0 -8 -13 -7 -13
9 0 16 13 18 12 14 -10 -1 -14 -7 -28 -12 -31 -4 -4 -3 -10 3 -13 6 -4 11 -2
11 5 0 7 6 4 14 -6 9 -13 11 -27 5 -41 -9 -26 13 -54 27 -33 5 8 3 9 -6 4 -9
-6 -11 -4 -5 5 5 9 4 11 -4 6 -6 -4 -3 8 8 27 11 19 17 38 14 41 -4 3 -1 6 5
6 18 0 23 -17 8 -30 -21 -17 -17 -51 5 -40 9 5 19 6 23 2 4 -3 4 2 0 12 -6 15
-4 17 6 11 8 -5 11 -4 6 3 -4 6 -14 8 -23 5 -13 -5 -13 -3 2 20 9 15 22 27 29
27 6 0 4 -4 -4 -10 -8 -5 -11 -12 -7 -16 11 -11 36 28 29 45 -4 10 -1 12 8 6
9 -5 11 -4 6 3 -4 7 -1 12 6 12 9 0 9 3 -2 10 -13 9 -8 14 12 12 3 -1 12 5 18
13 7 8 10 15 8 15 -3 0 12 18 33 41 21 22 35 47 33 54 -3 7 -1 16 5 20 7 4 8
0 4 -11 -4 -11 -3 -15 5 -10 6 3 14 1 18 -5 4 -7 3 -9 -3 -6 -5 3 -17 -3 -26
-13 -16 -19 -7 -37 13 -25 6 4 10 3 8 -2 -1 -4 18 -30 43 -56 48 -53 52 -65
29 -85 -13 -11 -12 -12 5 -10 11 2 19 -2 18 -9 -2 -7 4 -10 12 -6 13 5 13 7
-2 19 -15 11 -15 13 -2 8 16 -5 36 23 24 34 -3 3 -5 1 -5 -5 0 -5 -7 -10 -15
-10 -8 0 -13 3 -10 5 3 3 -1 12 -8 21 -10 14 -10 14 3 5 17 -13 50 -15 50 -2
0 4 -9 17 -21 29 -18 18 -18 20 -2 17 10 -2 19 3 19 12 1 8 3 17 4 20 1 3 3
13 5 23 5 29 13 30 13 2 0 -14 -5 -25 -10 -25 -5 0 -3 -7 6 -15 9 -9 12 -23 9
-33 -6 -15 -5 -15 10 -4 19 16 41 6 33 -15 -5 -11 -2 -13 10 -9 8 3 20 6 25 6
5 0 9 5 9 11 0 6 -6 9 -14 6 -17 -7 -30 20 -14 29 7 4 8 3 4 -4 -14 -23 10
-11 37 18 21 21 24 30 13 30 -8 0 -20 -8 -25 -17 -6 -10 -11 -14 -11 -9 0 5
-7 3 -15 -4 -8 -6 -20 -8 -26 -4 -8 4 -9 3 -5 -4 4 -7 3 -12 -2 -12 -15 0 -24
32 -13 43 7 7 5 20 -5 38 -8 16 -15 32 -17 36 -1 5 -6 7 -10 5 -5 -1 -6 2 -3
7 3 5 -1 14 -9 21 -12 10 -19 10 -32 -1 -16 -13 -17 -12 -4 4 12 15 12 20 1
30 -9 9 -11 9 -6 0 3 -6 1 -15 -6 -19 -7 -4 -10 -4 -6 1 4 4 2 17 -3 28 -9 16
-13 17 -20 6 -7 -11 -9 -11 -9 3 0 28 -136 40 -163 14z m48 -6 c-3 -5 -11 -10
-16 -10 -14 0 -39 -26 -39 -39 0 -6 -5 -11 -11 -11 -5 0 -8 4 -5 8 2 4 -4 9
-15 9 -27 2 -24 -2 17 -26 41 -25 51 -26 34 -6 -12 15 -6 35 11 35 5 0 9 -5 9
-11 0 -5 -4 -7 -10 -4 -17 10 -11 -3 12 -30 11 -13 25 -22 29 -19 13 7 1 -36
-17 -63 -11 -18 -19 -22 -27 -14 -15 15 -32 14 -20 -1 12 -17 11 -38 -2 -39
-16 -1 -35 -21 -29 -30 3 -5 -2 -12 -11 -15 -13 -5 -13 -9 -3 -22 11 -13 11
-14 0 -8 -7 4 -19 2 -27 -4 -12 -10 -18 -10 -30 0 -10 9 -15 9 -16 1 -1 -6 -3
-15 -4 -21 -1 -5 -3 -13 -4 -17 -1 -5 -10 3 -20 16 -24 32 -17 55 11 40 15 -8
19 -8 14 0 -4 6 -5 11 -2 11 2 0 13 3 23 6 15 5 15 4 3 -5 -13 -9 -13 -12 -1
-23 9 -8 11 -9 7 -1 -3 6 -2 14 4 18 5 3 10 0 10 -7 1 -16 21 17 25 40 1 10
-2 23 -8 30 -15 19 0 27 20 11 17 -12 17 -12 0 7 -18 19 -18 19 -37 -6 -14
-19 -22 -22 -31 -13 -6 6 -18 9 -26 6 -12 -5 -12 -7 -1 -15 10 -7 8 -8 -5 -4
-11 4 -16 2 -12 -5 4 -6 13 -8 21 -5 16 6 18 -3 4 -24 -9 -13 -11 -13 -20 0
-5 8 -10 11 -10 7 0 -5 -5 -5 -11 -2 -7 5 -5 15 6 32 12 17 13 28 6 37 -8 9
-4 19 14 36 13 13 22 26 20 30 -2 4 7 18 20 30 14 13 25 19 25 13 0 -5 7 -10
15 -10 8 0 15 7 15 14 0 8 -4 12 -9 8 -5 -3 -12 -1 -15 4 -7 11 20 35 32 27 5
-3 24 6 42 19 35 26 56 33 45 15z m73 -15 c2 -1 -5 -6 -15 -9 -9 -4 -14 -4
-10 0 4 4 -1 13 -11 21 -15 12 -14 13 8 2 14 -6 26 -13 28 -14z m-44 -11 c8
-21 8 -24 -5 -24 -5 0 -8 4 -4 9 3 5 1 12 -5 16 -5 3 -10 1 -10 -6 0 -7 -3
-10 -6 -6 -7 7 4 27 16 27 4 0 11 -7 14 -16z m76 6 c0 -5 -2 -10 -4 -10 -3 0
-8 5 -11 10 -3 6 -1 10 4 10 6 0 11 -4 11 -10z m-30 -20 c-8 -5 -19 -10 -25
-10 -5 0 -3 5 5 10 8 5 20 10 25 10 6 0 3 -5 -5 -10z m42 -14 c7 4 8 2 4 -4
-3 -6 -15 -9 -26 -7 -14 3 -20 -2 -20 -15 0 -13 6 -18 20 -15 11 2 23 -2 26
-8 4 -7 3 -9 -1 -4 -5 4 -15 -5 -21 -20 l-13 -28 6 28 c4 20 2 27 -8 25 -9 -2
-14 6 -14 22 0 15 5 24 13 23 6 -2 12 3 13 10 0 9 2 9 6 -1 2 -6 10 -9 15 -6z
m-107 -6 c3 -5 1 -10 -4 -10 -6 0 -11 5 -11 10 0 6 2 10 4 10 3 0 8 -4 11 -10z
m33 -12 c-3 -7 -12 -14 -22 -14 -13 -2 -13 -1 -1 3 8 2 13 9 10 14 -4 5 -1 9
5 9 7 0 10 -6 8 -12z m95 -3 c-3 -9 -8 -14 -10 -11 -3 3 -2 9 2 15 9 16 15 13
8 -4z m48 -22 c13 -16 12 -17 -3 -4 -10 7 -18 15 -18 17 0 8 8 3 21 -13z m-28
-55 c-2 -5 -13 -8 -23 -8 -10 0 -21 3 -23 8 -3 4 8 7 23 7 15 0 26 -3 23 -7z
m28 -11 c-6 -8 -9 -16 -6 -19 3 -2 -2 -5 -10 -5 -13 0 -13 3 2 19 19 21 31 25
14 5z m-84 -12 c0 -8 -4 -12 -9 -9 -5 3 -6 10 -3 15 9 13 12 11 12 -6z m43 1
c0 -2 -7 -7 -16 -10 -8 -3 -12 -2 -9 4 6 10 25 14 25 6z m-429 -33 c12 -16 12
-17 -2 -6 -9 7 -19 10 -22 6 -4 -3 -7 -1 -7 5 0 17 16 15 31 -5z m153 -14 c15
12 24 5 20 -16 -1 -7 -2 -18 -3 -24 -1 -8 -5 -8 -16 1 -8 6 -20 8 -26 4 -8 -4
-9 -3 -5 5 4 6 2 20 -6 29 -12 15 -11 16 5 3 13 -10 20 -11 31 -2z m316 -19
c0 -5 -5 -10 -11 -10 -5 0 -7 5 -4 10 3 6 8 10 11 10 2 0 4 -4 4 -10z m-325
-120 c3 -5 1 -10 -4 -10 -6 0 -11 5 -11 10 0 6 2 10 4 10 3 0 8 -4 11 -10z"/>
<path d="M5055 2360 c-3 -11 -11 -20 -16 -20 -5 0 -9 -4 -9 -8 0 -5 7 -9 15
-9 8 0 12 3 10 7 -2 3 0 12 4 19 7 10 9 10 14 -2 3 -8 -1 -23 -8 -34 -9 -11
-14 -13 -15 -5 0 7 -5 10 -11 6 -8 -4 -7 -9 2 -15 10 -6 10 -9 2 -9 -6 0 -15
5 -18 10 -4 6 -11 7 -17 4 -7 -5 -8 -2 -3 6 5 8 4 11 -3 6 -12 -7 -10 20 3 31
4 4 5 3 1 -4 -11 -19 9 -23 21 -4 9 14 7 17 -8 18 -10 1 -23 -5 -30 -13 -6 -8
-8 -14 -3 -14 4 0 -5 -13 -20 -28 -24 -26 -25 -30 -11 -42 8 -7 15 -9 15 -5 0
4 7 2 15 -5 12 -10 18 -8 34 11 19 23 19 23 40 5 24 -22 17 -43 -7 -24 -15 11
-15 11 -5 -3 7 -9 9 -20 5 -25 -4 -5 2 -1 14 9 11 9 23 14 27 11 8 -8 3 18 -6
33 -10 17 11 27 28 13 11 -9 17 -5 29 18 14 27 14 31 -3 46 -16 14 -20 15 -30
2 -9 -11 -10 -20 -1 -36 11 -20 10 -21 -9 -10 -17 9 -19 15 -11 30 14 25 13
28 -9 40 -16 8 -21 6 -26 -10z m75 -20 c0 -5 -5 -10 -11 -10 -5 0 -7 5 -4 10
3 6 8 10 11 10 2 0 4 -4 4 -10z m-117 -46 c4 -1 10 -2 14 -3 3 0 -2 -10 -12
-21 -10 -11 -23 -16 -29 -12 -6 3 -14 7 -18 8 -5 1 -11 2 -15 3 -3 0 2 10 12
21 10 11 23 16 29 12 6 -3 14 -7 19 -8z m68 -7 c-7 -7 -7 -15 2 -26 7 -10 3
-8 -11 3 -17 15 -19 22 -11 32 6 8 16 11 21 8 6 -4 6 -10 -1 -17z"/>
<path d="M4969 2283 c-7 -10 -9 -15 -5 -11 5 4 15 3 21 -2 9 -7 16 -5 26 7 7
10 9 15 5 11 -5 -4 -15 -3 -21 2 -9 7 -16 5 -26 -7z"/>
<path d="M4947 2149 c7 -7 15 -10 18 -7 3 3 -2 9 -12 12 -14 6 -15 5 -6 -5z"/>
<path d="M5015 2221 c-3 -5 -2 -12 3 -15 5 -3 9 1 9 9 0 17 -3 19 -12 6z"/>
<path d="M4770 2370 c0 -5 5 -10 10 -10 6 0 10 5 10 10 0 6 -4 10 -10 10 -5 0
-10 -4 -10 -10z"/>
<path d="M4755 2290 c-3 -5 1 -10 9 -10 9 0 16 5 16 10 0 6 -4 10 -9 10 -6 0
-13 -4 -16 -10z"/>
<path d="M5346 2231 c-6 -8 27 -53 38 -52 19 2 26 0 26 -8 0 -10 -26 -9 -36 2
-13 12 -21 8 -29 -15 -4 -13 -8 -26 -10 -30 -1 -5 -3 -13 -4 -20 0 -6 -4 -8
-7 -5 -4 3 -15 2 -26 -4 -18 -10 -18 -9 -8 11 11 20 10 21 -9 11 -12 -7 -18
-17 -14 -27 3 -9 0 -14 -8 -12 -7 2 -14 -3 -15 -9 -1 -7 -3 -15 -4 -18 -1 -3
-3 -9 -4 -13 0 -5 -9 -16 -18 -26 -10 -10 -18 -19 -18 -21 0 -3 8 -2 18 2 9 3
14 3 10 -2 -4 -4 -3 -14 3 -22 8 -9 8 -13 1 -13 -6 0 -13 4 -16 9 -9 14 -41 6
-41 -10 0 -8 -4 -14 -10 -14 -5 0 -16 -4 -22 -8 -7 -5 -13 -5 -13 -1 0 4 -9
-1 -20 -11 -11 -10 -20 -13 -20 -7 0 6 5 14 11 17 12 8 -28 55 -44 52 -6 -1
-11 5 -12 13 0 8 -6 15 -14 15 -8 0 -15 8 -17 18 -4 29 -12 32 -32 14 -18 -16
-20 -16 -36 2 -14 15 -15 24 -6 40 6 12 9 21 8 22 -2 0 -11 2 -21 4 -27 5 -30
11 -18 34 10 17 8 19 -9 16 -11 -2 -25 -7 -32 -11 -7 -5 -8 -3 -3 6 6 9 4 11
-5 5 -9 -6 -11 -4 -5 5 5 8 4 11 -3 6 -6 -4 -9 -13 -5 -22 3 -9 0 -14 -7 -12
-7 2 -15 -3 -17 -9 -3 -7 0 -13 7 -13 6 0 8 -5 4 -12 -4 -6 -3 -8 4 -4 17 10
23 -10 11 -38 -9 -20 -9 -29 1 -41 7 -8 10 -18 6 -22 -3 -3 -6 -1 -6 7 0 10
-3 10 -15 0 -12 -10 -14 -8 -10 8 2 12 -3 23 -12 26 -16 7 -36 -1 -29 -12 2
-4 -2 -13 -10 -20 -8 -7 -14 -10 -14 -6 0 3 -7 1 -15 -6 -8 -7 -15 -16 -15
-20 0 -13 38 1 44 16 3 8 12 11 22 7 8 -3 25 -6 37 -7 12 -1 21 -7 20 -14 -2
-7 -4 -18 -5 -24 -2 -7 -9 -18 -17 -24 -10 -8 -11 -13 -3 -18 6 -4 9 -13 5
-21 -6 -18 13 -20 23 -3 4 6 3 8 -2 5 -5 -3 -10 3 -10 13 0 10 3 17 7 14 4 -2
9 3 13 11 3 8 0 15 -7 15 -8 0 -7 4 3 9 8 6 18 7 22 5 4 -3 8 0 8 6 0 7 -7 10
-17 6 -11 -4 -8 2 7 14 15 12 18 18 8 14 -11 -4 -18 -1 -18 6 0 6 4 9 9 6 5
-3 15 2 22 12 13 16 13 16 -5 2 -18 -13 -19 -13 -11 0 8 13 7 13 -8 1 -9 -7
-18 -11 -18 -7 -5 23 -4 33 3 49 5 10 13 15 19 12 5 -4 9 -2 9 3 0 5 -11 15
-25 22 -13 7 -22 17 -19 22 3 5 12 1 18 -8 8 -11 18 -14 26 -9 8 5 11 4 7 -2
-4 -6 1 -17 10 -24 15 -12 16 -12 9 6 -6 16 -5 17 5 8 10 -10 9 -15 -1 -28
-10 -12 -10 -15 1 -15 11 0 11 -2 -1 -10 -13 -9 -13 -10 0 -11 8 -1 19 -1 23
0 5 1 5 -4 1 -10 -5 -8 -3 -9 7 -4 8 5 11 5 7 0 -4 -4 -2 -15 5 -23 10 -13 9
-14 -3 -7 -12 6 -13 5 -2 -6 15 -16 16 -29 1 -29 -5 0 -8 4 -4 9 3 5 0 13 -6
17 -8 5 -10 2 -5 -7 4 -8 1 -6 -7 4 -15 18 -21 15 -42 -22 -5 -9 -4 -12 3 -7
6 3 14 1 18 -5 4 -7 3 -9 -4 -5 -6 3 -15 -2 -21 -11 -8 -14 -10 -15 -11 -3 0
13 -1 13 -10 0 -12 -19 -13 -33 -1 -25 5 3 13 0 17 -7 4 -7 4 -10 0 -6 -10 8
-36 -14 -29 -24 2 -4 -2 -5 -10 -2 -8 3 -18 1 -21 -4 -3 -6 0 -12 8 -15 16 -7
62 42 58 62 -2 7 1 10 7 7 5 -4 14 2 20 11 8 14 10 15 11 3 0 -8 13 -24 29
-35 16 -10 27 -24 23 -30 -3 -5 1 -4 10 3 10 8 18 9 22 3 4 -6 13 -8 20 -5 8
3 17 1 20 -4 3 -5 -8 -8 -25 -6 -18 2 -28 0 -24 -6 3 -6 11 -10 17 -10 6 0 17
-8 24 -17 13 -17 14 -17 8 2 -5 18 -3 17 15 -4 12 -13 21 -18 21 -12 0 6 5 11
11 11 5 0 8 -4 5 -9 -4 -5 2 -8 11 -6 10 1 17 8 15 14 -3 17 14 13 34 -6 17
-17 18 -17 11 0 -5 13 -3 17 5 14 7 -2 12 -10 10 -17 -3 -11 0 -11 13 0 11 9
12 16 5 25 -7 9 -7 15 -1 19 5 4 12 -3 16 -13 6 -20 6 -20 26 0 10 10 19 22
19 25 0 3 14 17 31 31 21 18 27 29 20 36 -18 18 -12 31 6 16 9 -8 14 -9 10 -3
-4 7 0 15 9 18 8 3 13 10 10 15 -3 5 1 14 9 21 8 7 12 16 9 21 -3 5 -1 9 4 9
15 0 21 37 9 49 -6 6 -7 11 -3 11 5 0 3 7 -4 15 -9 11 -8 19 4 37 11 15 16 18
16 8 1 -11 3 -11 11 3 6 9 16 15 22 11 7 -3 3 2 -8 11 -11 9 -19 23 -17 31 3
16 -14 19 -23 4 -5 -8 -11 -7 -21 1 -12 10 -12 14 -2 20 9 6 9 9 1 9 -6 0 -14
-4 -17 -9z m28 -80 c3 -4 -3 -16 -13 -26 -20 -17 -24 -4 -8 23 10 14 14 15 21
3z m-480 -16 c-7 -16 -24 -21 -24 -6 0 8 7 13 27 20 1 1 0 -6 -3 -14z m481
-45 c-3 -5 -1 -12 5 -15 8 -5 6 -15 -5 -31 -8 -13 -12 -24 -9 -24 4 0 0 -8 -9
-18 -10 -10 -14 -22 -10 -27 5 -4 2 -5 -4 -1 -7 4 -13 3 -13 -3 0 -5 -9 -8
-20 -6 -24 5 -25 -3 -6 -24 13 -14 9 -21 -32 -61 -26 -25 -42 -38 -35 -29 11
13 7 15 -32 13 -41 -2 -43 -1 -32 17 7 11 13 15 15 9 5 -14 23 -13 20 1 -2 6
3 14 10 16 8 3 10 -1 6 -11 -3 -9 -1 -16 6 -16 6 0 8 5 5 10 -3 6 -1 10 4 10
6 0 11 -5 11 -11 0 -5 5 -7 11 -3 8 4 7 9 -2 16 -10 6 -6 7 11 3 14 -3 21 -3
15 2 -15 12 -17 33 -3 33 9 0 9 3 0 12 -17 17 -15 25 6 25 32 0 39 3 39 18 0
8 -5 11 -11 8 -6 -4 -5 1 3 10 7 9 11 18 7 18 -34 7 -56 21 -49 32 4 6 1 7 -7
2 -10 -6 -10 -11 4 -20 15 -11 15 -13 1 -19 -9 -3 -13 -10 -10 -16 3 -5 2 -10
-4 -10 -5 0 -11 3 -14 8 -2 4 -2 0 1 -8 3 -8 5 -24 6 -35 1 -11 4 -25 9 -31 5
-9 -11 -24 -27 -24 -5 0 0 36 7 46 3 6 3 14 0 18 -12 11 -12 40 -1 53 6 7 7
13 3 13 -4 0 -2 6 4 13 6 8 9 16 6 19 -3 2 2 5 10 6 8 1 22 3 30 4 8 1 15 6
15 12 0 6 5 4 10 -4 7 -11 10 -11 10 -2 0 7 4 11 9 7 5 -3 12 -1 16 5 4 6 11
8 16 4 5 -3 7 -9 4 -14z m-377 -53 c-7 -9 25 -37 35 -30 5 3 7 1 4 -4 -4 -6 0
-16 8 -23 8 -7 15 -9 15 -5 0 5 9 0 20 -10 18 -17 19 -20 5 -35 -14 -15 -14
-18 -1 -23 8 -3 20 0 26 8 6 8 18 11 26 8 8 -3 14 0 14 6 0 6 3 10 8 10 22 -4
34 3 29 15 -4 9 0 13 11 12 9 -2 15 -6 14 -11 -2 -4 2 -11 10 -16 10 -6 9 -11
-7 -23 -11 -8 -23 -12 -26 -10 -4 2 -14 -7 -23 -21 -10 -15 -12 -26 -6 -30 18
-11 10 -25 -12 -22 -14 1 -22 -3 -20 -10 3 -20 -6 -15 -18 7 -12 23 -5 44 12
34 6 -4 5 -10 -3 -15 -8 -5 -9 -9 -4 -9 6 0 17 5 25 10 11 7 11 10 2 10 -7 0
-11 4 -8 9 3 4 -1 17 -9 27 -10 13 -14 14 -12 4 2 -8 2 -12 0 -8 -2 4 -12 -1
-21 -10 -15 -14 -15 -19 -5 -30 17 -18 6 -37 -13 -21 -7 6 -12 15 -9 19 7 11
-22 33 -34 26 -5 -4 -12 -2 -16 4 -4 6 -11 8 -16 5 -5 -4 -9 -1 -9 5 0 6 -4 9
-9 6 -11 -7 -76 72 -67 81 3 3 15 -2 25 -11 11 -10 24 -15 30 -11 11 6 10 40
-2 51 -4 4 0 16 10 26 9 10 18 16 20 14 3 -2 3 -6 1 -9z m313 -20 c-5 -5 -7
-15 -5 -21 3 -7 -6 -12 -21 -12 l-26 0 23 18 c20 16 21 18 3 12 -14 -4 -16 -3
-7 3 17 13 46 13 33 0z m-111 -182 c14 -19 14 -19 -2 -6 -10 7 -18 18 -18 24
0 6 1 8 3 6 1 -2 9 -13 17 -24z"/>
<path d="M5347 2085 c-11 -7 -28 -12 -39 -10 -14 3 -18 -1 -16 -12 2 -9 8 -16
13 -16 18 2 34 -18 30 -39 -4 -16 -2 -18 10 -8 8 7 13 16 10 20 -3 5 -1 11 5
15 16 10 2 24 -20 20 -12 -2 -18 0 -15 5 3 5 17 6 32 4 22 -4 24 -2 15 9 -7 8
-9 17 -5 20 11 12 -1 7 -20 -8z m13 -41 c0 -8 -19 -13 -24 -6 -3 5 1 9 9 9 8
0 15 -2 15 -3z"/>
<path d="M5253 2035 c0 -8 4 -12 9 -9 5 3 6 10 3 15 -9 13 -12 11 -12 -6z"/>
<path d="M5293 1925 c0 -8 4 -12 9 -9 5 3 6 10 3 15 -9 13 -12 11 -12 -6z"/>
<path d="M4981 2026 c-8 -10 -9 -16 -1 -21 6 -3 7 -11 4 -17 -5 -7 0 -9 14 -6
15 4 19 2 15 -9 -3 -7 -8 -11 -11 -8 -3 3 -14 -2 -24 -12 -17 -15 -19 -15 -40
3 -16 14 -15 10 7 -19 15 -21 30 -35 33 -32 3 3 17 -2 31 -12 24 -15 25 -15
12 0 -23 29 -6 29 23 0 20 -20 25 -22 19 -7 -6 17 -5 17 10 5 9 -7 17 -9 17
-3 0 5 -7 13 -16 16 -15 6 -15 8 0 25 15 16 15 19 1 31 -8 7 -15 9 -15 4 0 -4
-16 7 -35 26 -19 18 -32 37 -29 42 8 13 -3 9 -15 -6z m20 -23 c13 -16 12 -17
-3 -4 -17 13 -22 21 -14 21 2 0 10 -8 17 -17z m59 -49 c0 4 5 4 11 1 7 -5 5
-13 -5 -24 -9 -10 -13 -22 -9 -26 5 -5 -4 -1 -19 8 -15 9 -29 13 -33 8 -3 -5
-13 -8 -23 -6 -9 2 -19 4 -21 4 -7 1 31 40 38 39 21 -2 31 3 25 15 -4 6 2 3
14 -7 12 -11 22 -16 22 -12z"/>
<path d="M5020 1950 c-8 -5 -17 -7 -21 -4 -4 2 -12 -3 -18 -10 -9 -11 -9 -14
1 -12 7 1 19 5 27 10 8 5 16 3 22 -5 7 -12 10 -12 21 1 8 8 12 14 9 13 -2 -2
-9 1 -15 7 -7 5 -18 5 -26 0z"/>
<path d="M5190 1930 c0 -5 5 -10 11 -10 5 0 7 5 4 10 -3 6 -8 10 -11 10 -2 0
-4 -4 -4 -10z"/>
<path d="M5157 1918 c-10 -8 -14 -18 -9 -26 6 -9 12 -6 20 13 13 29 12 30 -11
13z"/>
<path d="M4842 2215 c4 -4 3 -14 -3 -21 -8 -10 -5 -12 15 -11 23 2 39 22 19
22 -5 0 -15 4 -23 9 -8 5 -12 6 -8 1z"/>
<path d="M4869 2070 c0 -3 -2 -13 -4 -23 -3 -15 -1 -16 12 -5 9 7 18 12 21 10
3 -1 7 4 8 12 1 9 -6 14 -17 13 -10 -1 -19 -4 -20 -7z"/>
<path d="M4909 2025 c-1 -3 -2 -8 -3 -12 -1 -5 -5 -15 -10 -23 -8 -12 -6 -12
10 1 10 9 26 14 34 11 13 -4 13 -3 1 11 -13 16 -30 22 -32 12z"/>
<path d="M5790 1570 c0 -5 5 -10 11 -10 5 0 7 5 4 10 -3 6 -8 10 -11 10 -2 0
-4 -4 -4 -10z"/>
<path d="M5102 1500 c-22 -29 -15 -52 8 -25 7 8 16 13 20 10 5 -3 11 -1 15 4
3 6 -4 8 -15 6 -11 -2 -18 0 -15 6 4 5 11 7 16 4 5 -4 9 -2 9 4 0 23 -18 18
-38 -9z"/>
<path d="M5159 1528 c-3 -7 -10 -54 -10 -71 0 -10 -7 -16 -16 -15 -22 4 -25
-27 -4 -46 11 -10 21 -12 31 -6 10 7 11 10 3 10 -7 0 -13 5 -13 11 0 5 5 7 10
4 6 -4 9 -1 8 7 -2 7 6 13 17 14 47 2 48 3 35 19 -7 9 -10 18 -7 22 9 9 -13
34 -24 27 -16 -9 -10 -24 7 -17 14 5 14 3 -1 -15 -10 -11 -24 -18 -32 -15 -11
4 -12 8 -2 13 6 5 9 15 6 25 -4 9 -3 14 3 10 6 -3 10 -2 10 4 0 9 -18 26 -21
19z m51 -78 c0 -5 -5 -10 -11 -10 -5 0 -7 5 -4 10 3 6 8 10 11 10 2 0 4 -4 4
-10z m-54 -19 c-11 -12 -15 -25 -11 -33 6 -10 5 -10 -5 -1 -11 10 -10 16 5 33
10 11 20 20 23 20 3 0 -3 -9 -12 -19z"/>
<path d="M4797 933 c-4 -3 -7 -11 -7 -17 0 -6 5 -5 12 2 6 6 9 14 7 17 -3 3
-9 2 -12 -2z"/>
<path d="M5274 896 c1 -6 5 -17 9 -23 5 -8 3 -13 -5 -13 -11 0 -11 -2 0 -9 10
-6 5 -11 -17 -21 -17 -6 -32 -10 -34 -9 -7 7 -37 -23 -31 -32 10 -17 -7 -31
-22 -18 -8 6 -18 9 -21 5 -4 -4 -1 -11 6 -15 9 -6 10 -11 2 -15 -14 -9 -14
-26 -1 -26 6 0 9 6 8 13 -2 6 4 12 14 12 9 0 24 8 35 16 10 9 26 15 36 14 9
-2 18 1 18 6 3 18 5 24 17 45 6 12 9 23 7 26 -2 2 4 9 14 15 14 9 18 8 18 -3
0 -7 -4 -11 -8 -9 -3 3 -9 -4 -12 -14 -3 -14 -1 -18 9 -14 8 3 15 9 15 14 1 5
2 15 3 22 4 23 -12 41 -37 42 -14 1 -24 -3 -23 -9z m35 -13 c-6 -7 -15 -10
-20 -7 -13 8 -3 21 15 21 12 0 13 -4 5 -14z m-38 -66 c-6 -8 -9 -17 -6 -21 3
-3 -1 -1 -7 4 -10 9 -10 13 2 20 21 13 24 12 11 -3z m-41 -27 c-5 -9 -17 -23
-27 -31 -17 -13 -17 -13 0 7 19 23 23 39 5 28 -6 -4 -8 -3 -5 3 3 5 13 10 21
10 11 0 12 -5 6 -17z"/>
<path d="M5076 815 c4 -8 8 -15 10 -15 2 0 4 7 4 15 0 8 -4 15 -10 15 -5 0 -7
-7 -4 -15z"/>
<path d="M4980 810 c0 -5 5 -10 10 -10 6 0 10 5 10 10 0 6 -4 10 -10 10 -5 0
-10 -4 -10 -10z"/>
<path d="M5126 772 c-3 -5 -16 -8 -28 -7 -13 1 -31 -6 -41 -16 -18 -17 -18
-18 2 -29 12 -6 25 -8 30 -6 5 3 11 0 14 -8 5 -12 21 -13 62 -7 6 1 2 6 -8 12
-10 6 -16 17 -13 27 6 20 -9 49 -18 34z m5 -26 c-8 -10 -9 -16 -1 -21 5 -3 10
-12 10 -18 0 -7 -5 -4 -11 6 -6 9 -14 15 -20 12 -16 -11 -10 7 9 21 22 17 27
17 13 0z m-47 -17 c-3 -5 -10 -7 -15 -3 -5 3 -7 10 -3 15 3 5 10 7 15 3 5 -3
7 -10 3 -15z"/>
</g>
</svg>
